<?xml version="1.0" encoding="UTF-8"?>
<svg id="Layer_2" data-name="Layer 2" xmlns="http://www.w3.org/2000/svg" viewBox="0 0 22 22">
  <defs>
    <style>
      .cls-1 {
        fill: none;
      }
    </style>
  </defs>
  <g id="Layer_1-2" data-name="Layer 1">
    <g>
      <rect class="cls-1" width="22" height="22"/>
      <path d="M11,1.83C5.94,1.83,1.83,5.94,1.83,11s4.1,9.17,9.17,9.17,9.17-4.1,9.17-9.17S16.06,1.83,11,1.83ZM8.75,15.58h-2.1v-6.34h2.1v6.34ZM8.6,7.68c-.24.24-.56.37-.9.37-.7,0-1.28-.57-1.28-1.27,0-.34.13-.67.37-.91.24-.24.57-.37.91-.37.7,0,1.27.58,1.27,1.28,0,.34-.13.66-.37.9ZM16.5,15.58h-2.11v-3.73c0-.28-.11-.55-.31-.75-.2-.2-.47-.31-.75-.31-.58,0-1.05.48-1.05,1.06v3.73h-2.11v-6.34h2.11v.84c.36-.59,1.11-.98,1.76-.98s1.28.26,1.75.72c.46.46.72,1.09.72,1.75v4.02Z"/>
    </g>
  </g>
</svg>