<svg width="24" height="24" viewBox="0 0 24 24" fill="none" xmlns="http://www.w3.org/2000/svg">
<rect x="2" y="2" width="20" height="20" rx="10" fill="black"/>
<path d="M18 17V12.6198C18 11.9053 17.7161 11.22 17.2109 10.7147C16.7056 10.2095 16.0203 9.92562 15.3058 9.92562C14.6033 9.92562 13.7851 10.3554 13.3884 11V10.0826H11.0826V17H13.3884V12.9256C13.3884 12.2893 13.9008 11.7686 14.5372 11.7686C14.8441 11.7686 15.1383 11.8905 15.3553 12.1075C15.5723 12.3245 15.6942 12.6188 15.6942 12.9256V17H18ZM8.39669 8.78512C8.76493 8.78512 9.11808 8.63884 9.37846 8.37846C9.63884 8.11808 9.78512 7.76493 9.78512 7.39669C9.78512 6.6281 9.16529 6 8.39669 6C8.02627 6 7.67101 6.14715 7.40908 6.40908C7.14715 6.67101 7 7.02627 7 7.39669C7 8.16529 7.6281 8.78512 8.39669 8.78512ZM9.54546 17V10.0826H7.2562V17H9.54546Z" fill="white"/>
</svg>
