<?xml version="1.0" encoding="UTF-8"?>
<svg id="Layer_2" data-name="Layer 2" xmlns="http://www.w3.org/2000/svg" viewBox="0 0 22 22">
  <defs>
    <style>
      .cls-1 {
        fill: none;
      }
    </style>
  </defs>
  <g id="Layer_1-2" data-name="Layer 1">
    <g>
      <rect class="cls-1" width="22" height="22"/>
      <path d="M12.37,17.83c-1.09,1.07-2.56,1.67-4.09,1.67-1.53,0-3-.62-4.08-1.7-1.08-1.08-1.69-2.55-1.7-4.08,0-1.53.59-3,1.67-4.09l1.37-1.37,1.37,1.37-1.37,1.37c-.73.72-1.13,1.71-1.13,2.73s.41,2.01,1.13,2.73c.72.73,1.71,1.13,2.73,1.13s2.01-.41,2.73-1.13l1.37-1.37,1.37,1.37-1.37,1.37ZM13.73,6.9l1.37,1.37-6.84,6.83-1.37-1.37,6.83-6.83ZM17.83,12.37l-1.37,1.37-1.37-1.37,1.37-1.37c.73-.73,1.13-1.71,1.13-2.73,0-1.03-.41-2.01-1.13-2.73-.72-.73-1.71-1.13-2.73-1.13-1.03,0-2.01.41-2.74,1.13l-1.37,1.37-1.37-1.37,1.37-1.37c1.09-1.07,2.56-1.67,4.09-1.67,1.53,0,3,.62,4.08,1.7,1.08,1.08,1.69,2.55,1.7,4.08,0,1.53-.59,3-1.67,4.09Z"/>
    </g>
  </g>
</svg>