<svg width="24" height="22" viewBox="0 0 24 22" fill="none" xmlns="http://www.w3.org/2000/svg">
<rect x="2" y="2" width="20" height="20" rx="10" fill="black"/>
<path d="M15.2169 13.6079L14.4123 12.804L15.2175 12C15.644 11.5734 15.8836 10.9948 15.8835 10.3916C15.8835 9.78834 15.6438 9.20982 15.2172 8.7833C14.7905 8.35678 14.2119 8.11719 13.6087 8.11724C13.0054 8.11729 12.4268 8.35699 12.0003 8.78358L11.1963 9.58755L10.3911 8.78358L11.1957 7.97962C11.8373 7.34846 12.7023 6.99636 13.6023 7.00003C14.5023 7.00369 15.3644 7.36282 16.0008 7.99919C16.6372 8.63555 16.9963 9.4976 17 10.3975C17.0036 11.2975 16.6515 12.1624 16.0203 12.804L15.2169 13.6079ZM13.6083 15.2164L12.8043 16.0204C12.1627 16.6515 11.2977 17.0036 10.3977 17C9.49774 16.9963 8.63565 16.6372 7.99924 16.0008C7.36284 15.3644 7.00369 14.5024 7.00003 13.6025C6.99636 12.7025 7.34848 11.8376 7.97968 11.196L8.78369 10.3921L9.58769 11.196L8.78369 12C8.35714 12.4265 8.11751 13.005 8.11751 13.6082C8.11751 14.2114 8.35714 14.7899 8.78369 15.2164C9.21023 15.6429 9.78876 15.8826 10.392 15.8826C10.9952 15.8826 11.5737 15.6429 12.0003 15.2164L12.8043 14.4125L13.6083 15.2164ZM13.6083 9.58755L14.4129 10.3921L10.3917 14.4119L9.58769 13.6079L13.6083 9.58755Z" fill="white"/>
</svg>
