<?xml version="1.0" encoding="UTF-8"?>
<svg id="Layer_2" data-name="Layer 2" xmlns="http://www.w3.org/2000/svg" viewBox="0 0 22 22">
  <defs>
    <style>
      .cls-1 {
        fill: none;
      }

      .cls-2 {
        fill-rule: evenodd;
      }
    </style>
  </defs>
  <g id="Layer_1-2" data-name="Layer 1">
    <g>
      <rect class="cls-1" width="22" height="22"/>
      <path class="cls-2" d="M20.17,11c0,5.06-4.1,9.17-9.17,9.17S1.83,16.06,1.83,11,5.94,1.83,11,1.83s9.17,4.1,9.17,9.17ZM11.33,8.6c-.89.37-2.67,1.14-5.35,2.3-.43.17-.66.34-.68.51-.03.28.32.39.79.54.07.02.13.04.2.06.47.15,1.1.33,1.43.34.3,0,.63-.12.99-.37,2.5-1.69,3.78-2.54,3.87-2.56.06-.01.14-.03.19.02.05.05.05.14.04.16-.03.15-1.41,1.42-2.12,2.08-.22.21-.38.35-.41.38-.07.07-.14.15-.22.21-.44.42-.76.73.02,1.25.37.25.67.45.97.65.33.22.65.44,1.07.72.11.07.21.14.31.21.38.27.72.51,1.14.48.24-.02.5-.25.63-.94.3-1.62.9-5.14,1.04-6.59,0-.12,0-.24-.02-.36-.01-.1-.06-.18-.13-.25-.11-.09-.28-.11-.36-.11-.34,0-.87.19-3.42,1.25Z"/>
    </g>
  </g>
</svg>