<svg width="24" height="24" viewBox="0 0 24 24" fill="none" xmlns="http://www.w3.org/2000/svg">
<path d="M12.3191 3.5148C13.3143 3.5 14.3019 3.5074 15.2895 3.5C15.3502 4.63218 15.7681 5.78657 16.6189 6.58576C17.4697 7.40715 18.67 7.78454 19.8399 7.91034V10.8925C18.746 10.8555 17.6445 10.6335 16.6493 10.1747C16.2163 9.98232 15.8136 9.73812 15.4186 9.48652C15.411 11.6473 15.4262 13.8081 15.4034 15.9614C15.3426 16.9974 14.9932 18.026 14.3778 18.877C13.3827 20.2978 11.6582 21.2228 9.88814 21.2524C8.8018 21.3116 7.71546 21.023 6.78865 20.4902C5.25409 19.6096 4.17535 17.9964 4.01582 16.2648C4.00062 15.8948 3.99303 15.5248 4.00822 15.1623C4.14496 13.7563 4.85906 12.4095 5.96819 11.4919C7.22926 10.4263 8.99172 9.91572 10.6402 10.2191C10.6554 11.3143 10.6098 12.4095 10.6098 13.5047C9.85775 13.2679 8.97652 13.3345 8.3156 13.7785C7.83701 14.0819 7.47236 14.5481 7.28244 15.0735C7.12291 15.4508 7.16849 15.8652 7.17608 16.2648C7.35841 17.4784 8.5587 18.4996 9.83496 18.3886C10.6858 18.3812 11.4987 17.9002 11.9393 17.1972C12.0836 16.953 12.2431 16.7014 12.2507 16.4128C12.3267 15.0883 12.2963 13.7711 12.3039 12.4465C12.3115 9.46432 12.2963 6.48956 12.3191 3.5148Z" fill="black"/>
</svg>
