<?xml version="1.0" encoding="UTF-8"?>
<svg id="Layer_2" data-name="Layer 2" xmlns="http://www.w3.org/2000/svg" viewBox="0 0 22 22">
  <defs>
    <style>
      .cls-1 {
        fill: none;
      }
    </style>
  </defs>
  <g id="Layer_1-2" data-name="Layer 1">
    <g>
      <rect class="cls-1" width="22" height="22"/>
      <path d="M18.7,18.89c-.06.11-.15.2-.26.26-.11.06-.23.1-.36.1h-4.25c-.12,0-.24-.03-.34-.08-.1-.06-.19-.14-.26-.23l-3.59-5.47-5.21,5.56c-.13.13-.3.21-.49.22-.19,0-.37-.06-.51-.18-.14-.12-.22-.29-.23-.47,0-.18.05-.36.18-.49l5.47-5.84L3.32,3.81c-.07-.1-.11-.22-.11-.35,0-.12.03-.25.09-.35.06-.11.15-.2.26-.26.11-.06.23-.1.36-.1h4.25c.12,0,.24.03.34.09.1.06.19.14.26.23l3.59,5.47,5.21-5.56c.13-.13.3-.21.49-.22s.37.06.51.18c.14.12.22.29.23.47,0,.18-.05.36-.18.49l-5.47,5.84,5.54,8.45c.07.1.11.22.11.35,0,.12-.03.24-.09.35Z"/>
    </g>
  </g>
</svg>