<svg width="24" height="24" viewBox="0 0 24 24" fill="none" xmlns="http://www.w3.org/2000/svg">
<path d="M20.2374 20.6109C20.1709 20.7286 20.0731 20.8267 19.9541 20.8951C19.8352 20.9636 19.6995 20.9998 19.5613 21H14.9248C14.7948 21 14.6668 20.9681 14.5528 20.9073C14.4389 20.8465 14.3425 20.7587 14.2728 20.6522L10.3617 14.6869L4.6782 20.7544C4.53965 20.8988 4.34802 20.9845 4.14486 20.9927C3.9417 21.0009 3.74338 20.9311 3.5929 20.7984C3.44241 20.6657 3.3519 20.4807 3.34097 20.2836C3.33005 20.0866 3.3996 19.8933 3.53454 19.7456L9.5011 13.3706L3.45437 4.15313C3.3799 4.03973 3.33821 3.90898 3.33367 3.77458C3.32913 3.64018 3.3619 3.50707 3.42856 3.38918C3.49521 3.27129 3.5933 3.17296 3.71255 3.10449C3.8318 3.03603 3.96782 2.99993 4.10637 3H8.74284C8.8729 3.00004 9.00084 3.03194 9.11481 3.09274C9.22879 3.15353 9.32511 3.24127 9.39485 3.34781L13.3059 9.31312L18.9894 3.24562C19.128 3.10117 19.3196 3.01555 19.5228 3.00731C19.726 2.99907 19.9243 3.06888 20.0748 3.20161C20.2252 3.33435 20.3158 3.51929 20.3267 3.71636C20.3376 3.91343 20.268 4.10674 20.1331 4.25438L14.1665 10.6247L20.2133 19.8478C20.2873 19.9613 20.3286 20.0919 20.3329 20.2262C20.3371 20.3604 20.3042 20.4933 20.2374 20.6109Z" fill="black"/>
</svg>
