<svg width="24" height="24" viewBox="0 0 24 24" fill="none" xmlns="http://www.w3.org/2000/svg">
	<path
		d="M12.36 2.5C17.5295 2.5 21.72 6.69047 21.72 11.86C21.72 17.0295 17.5295 21.22 12.36 21.22C10.7059 21.2227 9.08088 20.7849 7.65193 19.9517L3.00376 21.22L4.26923 16.5699C3.43534 15.1406 2.99725 13.5148 3.00001 11.86C3.00001 6.69047 7.19048 2.5 12.36 2.5ZM9.17012 7.4608L8.98292 7.46828C8.86173 7.47566 8.74329 7.5075 8.63473 7.56188C8.53319 7.61938 8.44051 7.69126 8.35955 7.77529C8.24723 7.88106 8.18358 7.97279 8.11525 8.06171C7.76904 8.51183 7.58264 9.06446 7.58547 9.63231C7.58735 10.091 7.70715 10.5374 7.89435 10.9549C8.27718 11.7992 8.9071 12.693 9.73827 13.5214C9.93858 13.7208 10.1351 13.9211 10.3467 14.1073C11.3794 15.0166 12.6102 15.6724 13.9409 16.0224L14.4726 16.1038C14.6457 16.1132 14.8189 16.1001 14.993 16.0916C15.2656 16.0776 15.5317 16.0038 15.7727 15.8754C15.8952 15.8123 16.0149 15.7436 16.1311 15.6695C16.1311 15.6695 16.1714 15.6433 16.2481 15.5853C16.3745 15.4917 16.4522 15.4252 16.557 15.3157C16.6347 15.2352 16.7021 15.1407 16.7536 15.033C16.8266 14.8805 16.8996 14.5894 16.9296 14.3469C16.952 14.1616 16.9455 14.0605 16.9427 13.9978C16.9389 13.8977 16.8556 13.7938 16.7648 13.7498L16.2201 13.5055C16.2201 13.5055 15.4057 13.1507 14.9078 12.9242C14.8557 12.9015 14.7999 12.8885 14.7431 12.8858C14.679 12.8793 14.6143 12.8865 14.5533 12.907C14.4923 12.9275 14.4363 12.9608 14.3893 13.0047C14.3846 13.0028 14.3219 13.0562 13.6451 13.8761C13.6063 13.9283 13.5528 13.9678 13.4914 13.9894C13.4301 14.0111 13.3637 14.014 13.3007 13.9978C13.2397 13.9815 13.18 13.9608 13.1219 13.936C13.0058 13.8874 12.9656 13.8686 12.886 13.835C12.3488 13.6005 11.8515 13.2838 11.4118 12.8961C11.2939 12.7932 11.1844 12.6809 11.0721 12.5723C10.7038 12.2196 10.3829 11.8207 10.1174 11.3854L10.0621 11.2965C10.0225 11.2368 9.99039 11.1723 9.96666 11.1046C9.93109 10.967 10.0238 10.8566 10.0238 10.8566C10.0238 10.8566 10.2512 10.6076 10.357 10.4728C10.4599 10.3418 10.547 10.2145 10.6031 10.1237C10.7136 9.94587 10.7482 9.76335 10.6902 9.62202C10.4281 8.9818 10.1567 8.34438 9.87774 7.71164C9.82251 7.58622 9.65871 7.49636 9.50989 7.47858C9.45934 7.47296 9.4088 7.46735 9.35826 7.4636C9.23256 7.45736 9.1066 7.45861 8.98105 7.46735L9.17012 7.4608Z"
		fill="white" />
</svg>