<?xml version="1.0" encoding="UTF-8"?>
<svg id="Layer_2" data-name="Layer 2" xmlns="http://www.w3.org/2000/svg" viewBox="0 0 22 22">
  <defs>
    <style>
      .cls-1 {
        fill: none;
      }
    </style>
  </defs>
  <g id="Layer_1-2" data-name="Layer 1">
    <g>
      <rect class="cls-1" width="22" height="22"/>
      <path d="M11,1.83c5.06,0,9.17,4.1,9.17,9.17s-4.1,9.17-9.17,9.17c-1.62,0-3.21-.43-4.61-1.24l-4.55,1.24,1.24-4.55c-.82-1.4-1.25-2.99-1.24-4.61C1.83,5.94,5.94,1.83,11,1.83ZM7.88,6.69h-.18c-.12.01-.23.05-.34.1-.1.06-.19.13-.27.21-.11.1-.17.19-.24.28-.34.44-.52.98-.52,1.54,0,.45.12.89.3,1.3.37.83.99,1.7,1.81,2.51.2.2.39.39.6.57,1.01.89,2.22,1.53,3.52,1.88l.52.08c.17,0,.34,0,.51-.01.27-.01.53-.09.76-.21.12-.06.24-.13.35-.2,0,0,.04-.03.11-.08.12-.09.2-.16.3-.26.08-.08.14-.17.19-.28.07-.15.14-.43.17-.67.02-.18.02-.28.01-.34,0-.1-.09-.2-.17-.24l-.53-.24s-.8-.35-1.29-.57c-.05-.02-.11-.04-.16-.04-.06,0-.13,0-.19.02s-.11.05-.16.1c0,0-.07.05-.73.85-.04.05-.09.09-.15.11-.06.02-.13.02-.19,0-.06-.02-.12-.04-.18-.06-.11-.05-.15-.07-.23-.1-.53-.23-1.01-.54-1.44-.92-.12-.1-.22-.21-.33-.32-.36-.35-.67-.74-.93-1.16l-.05-.09c-.04-.06-.07-.12-.09-.19-.03-.13.06-.24.06-.24,0,0,.22-.24.33-.38.1-.13.19-.25.24-.34.11-.17.14-.35.09-.49-.26-.63-.52-1.25-.8-1.87-.05-.12-.21-.21-.36-.23-.05,0-.1-.01-.15-.01-.12,0-.25,0-.37,0h.19Z"/>
    </g>
  </g>
</svg>