<svg width="24" height="24" viewBox="0 0 24 24" fill="none" xmlns="http://www.w3.org/2000/svg">
<path d="M12.498 3C7.2741 3 3 7.2646 3 12.517C3 17.266 6.47626 21.2077 11.0163 21.92V15.2714H8.60382V12.517H11.0163V10.4179C11.0163 8.03394 12.4315 6.72321 14.6065 6.72321C15.6418 6.72321 16.7246 6.90368 16.7246 6.90368V9.24968H15.5279C14.3501 9.24968 13.9797 9.98103 13.9797 10.7314V12.517H16.6201L16.1927 15.2714H13.9797V21.92C16.2178 21.5665 18.2559 20.4246 19.7259 18.7002C21.1959 16.9759 22.0011 14.7829 21.996 12.517C21.996 7.2646 17.7219 3 12.498 3Z" fill="black"/>
</svg>
