<svg width="18" height="18" viewBox="0 0 18 18" fill="none" xmlns="http://www.w3.org/2000/svg">
<path fill-rule="evenodd" clip-rule="evenodd" d="M17 4C17 4.55228 16.5523 5 16 5L2 5C1.44772 5 1 4.55228 1 4V4C1 3.44772 1.44772 3 2 3L16 3C16.5523 3 17 3.44772 17 4V4Z" fill="black"/>
<path fill-rule="evenodd" clip-rule="evenodd" d="M17 9C17 9.55228 16.5523 10 16 10L2 10C1.44772 10 1 9.55228 1 9V9C1 8.44772 1.44772 8 2 8L16 8C16.5523 8 17 8.44772 17 9V9Z" fill="black"/>
<path fill-rule="evenodd" clip-rule="evenodd" d="M17 14C17 14.5523 16.5523 15 16 15L2 15C1.44772 15 1 14.5523 1 14V14C1 13.4477 1.44772 13 2 13L16 13C16.5523 13 17 13.4477 17 14V14Z" fill="black"/>
</svg>
