<svg width="14" height="14" viewBox="0 0 14 14" fill="none" xmlns="http://www.w3.org/2000/svg">
<path d="M7.00008 1.16666C6.23404 1.16666 5.47549 1.31754 4.76776 1.61069C4.06003 1.90385 3.41697 2.33353 2.87529 2.8752C1.78133 3.96916 1.16675 5.45289 1.16675 6.99999C1.16675 8.54709 1.78133 10.0308 2.87529 11.1248C3.41697 11.6665 4.06003 12.0961 4.76776 12.3893C5.47549 12.6824 6.23404 12.8333 7.00008 12.8333C8.54718 12.8333 10.0309 12.2187 11.1249 11.1248C12.2188 10.0308 12.8334 8.54709 12.8334 6.99999C12.8334 6.23395 12.6825 5.4754 12.3894 4.76767C12.0962 4.05994 11.6665 3.41688 11.1249 2.8752C10.5832 2.33353 9.94014 1.90385 9.2324 1.61069C8.52467 1.31754 7.76613 1.16666 7.00008 1.16666ZM9.45008 9.44999L6.41675 7.58332V4.08332H7.29175V7.11666L9.91675 8.69166L9.45008 9.44999Z" fill="black"/>
</svg>
