<svg width="18" height="18" viewBox="0 0 18 18" fill="none" xmlns="http://www.w3.org/2000/svg">
<path d="M15.3901 11.4075L14.0401 10.05V6.70498C14.058 5.46285 13.626 4.25616 12.8236 3.30773C12.0213 2.3593 10.903 1.73318 9.67505 1.54498C8.96241 1.45113 8.23795 1.51034 7.55001 1.71866C6.86206 1.92698 6.22646 2.27962 5.6856 2.75305C5.14474 3.22648 4.71106 3.80981 4.41351 4.46413C4.11596 5.11844 3.96137 5.82869 3.96005 6.54748V10.05L2.61005 11.4075C2.44048 11.5799 2.32549 11.7984 2.27946 12.0358C2.23342 12.2732 2.25838 12.5189 2.35121 12.7422C2.44405 12.9655 2.60064 13.1565 2.80142 13.2912C3.00219 13.426 3.23824 13.4986 3.48005 13.5H6.00005V13.755C6.03509 14.5164 6.37052 15.2328 6.93285 15.7474C7.49518 16.2619 8.23854 16.5325 9.00006 16.5C9.76157 16.5325 10.5049 16.2619 11.0673 15.7474C11.6296 15.2328 11.965 14.5164 12.0001 13.755V13.5H14.5201C14.7619 13.4986 14.9979 13.426 15.1987 13.2912C15.3995 13.1565 15.5561 12.9655 15.6489 12.7422C15.7417 12.5189 15.7667 12.2732 15.7207 12.0358C15.6746 11.7984 15.5596 11.5799 15.3901 11.4075ZM10.5001 13.755C10.4585 14.1157 10.2793 14.4465 9.99986 14.6785C9.72043 14.9104 9.36229 15.0256 9.00006 15C8.63782 15.0256 8.27968 14.9104 8.00025 14.6785C7.72082 14.4465 7.54165 14.1157 7.50005 13.755V13.5H10.5001V13.755Z" fill="white"/>
</svg>
