<svg width="18" height="18" viewBox="0 0 18 18" fill="none" xmlns="http://www.w3.org/2000/svg">
<path fill-rule="evenodd" clip-rule="evenodd" d="M15.125 12.848C15.1241 12.884 15.1206 12.9198 15.1145 12.9552C15.1303 13.0367 15.1279 13.1206 15.1075 13.201C15.0871 13.2814 15.0491 13.3562 14.9964 13.4203C14.9436 13.4843 14.8774 13.5358 14.8024 13.5712C14.7274 13.6066 14.6454 13.625 14.5625 13.625H4.0625C3.93939 13.625 3.81748 13.6492 3.70373 13.6964C3.58999 13.7435 3.48664 13.8125 3.39959 13.8996C3.31253 13.9866 3.24348 14.09 3.19636 14.2037C3.14925 14.3175 3.125 14.4394 3.125 14.5625C3.125 14.6856 3.14925 14.8075 3.19636 14.9213C3.24348 15.035 3.31253 15.1384 3.39959 15.2254C3.48664 15.3125 3.58999 15.3815 3.70373 15.4286C3.81748 15.4758 3.93939 15.5 4.0625 15.5H14.5625C14.7117 15.5 14.8548 15.5593 14.9602 15.6648C15.0657 15.7702 15.125 15.9133 15.125 16.0625C15.125 16.2117 15.0657 16.3548 14.9602 16.4602C14.8548 16.5657 14.7117 16.625 14.5625 16.625H4.0625C3.51549 16.625 2.99089 16.4077 2.60409 16.0209C2.2173 15.6341 2 15.1095 2 14.5625V4.0625C2 3.51549 2.2173 2.99089 2.60409 2.60409C2.99089 2.2173 3.51549 2 4.0625 2H14.1125C14.672 2 15.125 2.453 15.125 3.0125V12.848ZM6.3125 5C6.16332 5 6.02024 5.05926 5.91475 5.16475C5.80926 5.27024 5.75 5.41332 5.75 5.5625C5.75 5.71168 5.80926 5.85476 5.91475 5.96025C6.02024 6.06574 6.16332 6.125 6.3125 6.125H10.8125C10.9617 6.125 11.1048 6.06574 11.2102 5.96025C11.3157 5.85476 11.375 5.71168 11.375 5.5625C11.375 5.41332 11.3157 5.27024 11.2102 5.16475C11.1048 5.05926 10.9617 5 10.8125 5H6.3125Z" fill="black"/>
</svg>
