<svg width="18" height="18" viewBox="0 0 18 18" fill="none" xmlns="http://www.w3.org/2000/svg">
<g clip-path="url(#clip0_1288_887)">
<path fill-rule="evenodd" clip-rule="evenodd" d="M5.25 5.25003C5.25014 4.54051 5.45158 3.84558 5.8309 3.24597C6.21023 2.64636 6.75188 2.16666 7.39294 1.8626C8.03401 1.55854 8.74819 1.44258 9.45252 1.5282C10.1569 1.61382 10.8225 1.8975 11.372 2.3463C11.9216 2.7951 12.3325 3.39059 12.5571 4.06362C12.7817 4.73665 12.8108 5.45959 12.641 6.14849C12.4711 6.83738 12.1093 7.46395 11.5976 7.95543C11.0859 8.44691 10.4452 8.78313 9.75 8.92503V12.75C9.75 12.9489 9.67098 13.1397 9.53033 13.2804C9.38968 13.421 9.19891 13.5 9 13.5C8.80109 13.5 8.61032 13.421 8.46967 13.2804C8.32902 13.1397 8.25 12.9489 8.25 12.75V8.92503C7.40298 8.75213 6.6417 8.29189 6.09502 7.62221C5.54834 6.95252 5.24982 6.11452 5.25 5.25003ZM7.11675 12.075C7.13167 12.1724 7.12724 12.2718 7.10373 12.3675C7.08021 12.4632 7.03806 12.5534 6.97969 12.6328C6.92132 12.7122 6.84788 12.7793 6.76355 12.8303C6.67923 12.8813 6.58568 12.9152 6.48825 12.93C5.52975 13.0763 4.7685 13.2968 4.26825 13.5413C4.017 13.6643 3.86775 13.776 3.7905 13.8578L3.77475 13.875C3.7995 13.9043 3.84225 13.947 3.91725 14.0018C4.12725 14.157 4.479 14.328 4.98075 14.4848C5.976 14.796 7.39725 15 9 15C10.6028 15 12.024 14.796 13.0192 14.4848C13.5217 14.328 13.8728 14.157 14.0828 14.0018C14.1578 13.947 14.2005 13.9043 14.2252 13.875L14.2095 13.8578C14.1322 13.776 13.983 13.6643 13.7318 13.5413C13.2315 13.2968 12.4702 13.0763 11.5117 12.93C11.4133 12.9165 11.3184 12.8836 11.2328 12.8331C11.1471 12.7826 11.0724 12.7155 11.0129 12.6359C10.9534 12.5563 10.9103 12.4656 10.8861 12.3691C10.862 12.2727 10.8573 12.1724 10.8722 12.0741C10.8872 11.9758 10.9216 11.8815 10.9733 11.7966C11.0251 11.7117 11.0932 11.6379 11.1737 11.5796C11.2542 11.5213 11.3455 11.4796 11.4423 11.4568C11.5391 11.4341 11.6394 11.4309 11.7375 11.4473C12.7785 11.6048 13.704 11.8575 14.3917 12.1943C14.7345 12.3623 15.0547 12.5693 15.2977 12.8258C15.5452 13.086 15.75 13.4408 15.75 13.875C15.75 14.4833 15.357 14.925 14.9745 15.2078C14.577 15.5018 14.0497 15.7343 13.467 15.9165C12.2895 16.284 10.7115 16.5 9 16.5C7.2885 16.5 5.70975 16.284 4.53375 15.9165C3.95025 15.7343 3.42375 15.5018 3.02625 15.2078C2.643 14.925 2.25 14.4833 2.25 13.875C2.25 13.44 2.45475 13.086 2.70225 12.825C2.946 12.5685 3.2655 12.3623 3.60825 12.195C4.296 11.8575 5.22225 11.6055 6.26175 11.4473C6.35916 11.4324 6.45856 11.4368 6.55427 11.4603C6.64997 11.4838 6.7401 11.526 6.8195 11.5843C6.89891 11.6427 6.96603 11.7162 7.01703 11.8005C7.06804 11.8848 7.10192 11.9776 7.11675 12.075Z" fill="black"/>
</g>
<defs>
<clipPath id="clip0_1288_887">
<rect width="18" height="18" fill="white"/>
</clipPath>
</defs>
</svg>
