<svg width="41" height="41" viewBox="0 0 41 41" fill="none" xmlns="http://www.w3.org/2000/svg">
<path d="M8.5 9C7.17392 9 5.90215 9.50483 4.96447 10.4034C4.02678 11.3021 3.5 12.5208 3.5 13.7917V16.2833H35.5V13.7917C35.5 12.5208 34.9732 11.3021 34.0355 10.4034C33.0979 9.50483 31.8261 9 30.5 9H8.5ZM3.5 27.2083V18.2H35.5V27.2083C35.5 28.4792 34.9732 29.6979 34.0355 30.5966C33.0979 31.4952 31.8261 32 30.5 32H8.5C7.17392 32 5.90215 31.4952 4.96447 30.5966C4.02678 29.6979 3.5 28.4792 3.5 27.2083ZM25.3 24.7167C25.0348 24.7167 24.7804 24.8176 24.5929 24.9974C24.4054 25.1771 24.3 25.4208 24.3 25.675C24.3 25.9292 24.4054 26.1729 24.5929 26.3526C24.7804 26.5324 25.0348 26.6333 25.3 26.6333H29.7C29.9652 26.6333 30.2196 26.5324 30.4071 26.3526C30.5946 26.1729 30.7 25.9292 30.7 25.675C30.7 25.4208 30.5946 25.1771 30.4071 24.9974C30.2196 24.8176 29.9652 24.7167 29.7 24.7167H25.3Z" fill="black"/>
</svg>
