<svg width="36" height="37" viewBox="0 0 36 37" fill="none" xmlns="http://www.w3.org/2000/svg">
<path d="M20.9632 30.6667C20.3055 30.6667 19.7429 30.4325 19.2755 29.9641C18.8081 29.4957 18.5739 28.9336 18.5729 28.2778V21.9618C18.5729 21.305 18.8071 20.7429 19.2755 20.2755C19.7439 19.8081 20.306 19.5739 20.9617 19.5729H27.2778C27.9345 19.5729 28.4966 19.8071 28.964 20.2755C29.4314 20.7439 29.6656 21.306 29.6666 21.9618V28.2778C29.6666 28.9346 29.4324 29.4966 28.964 29.9641C28.4956 30.4315 27.9335 30.6657 27.2778 30.6667H20.9632ZM20.9632 18.0937C20.3055 18.0937 19.7429 17.8595 19.2755 17.3911C18.8081 16.9227 18.5739 16.3607 18.5729 15.7049V9.38885C18.5729 8.7321 18.8071 8.17002 19.2755 7.7026C19.7439 7.23519 20.306 7.00099 20.9617 7H27.2778C27.9345 7 28.4966 7.2342 28.964 7.7026C29.4314 8.17101 29.6656 8.73309 29.6666 9.38885V15.7049C29.6666 16.3616 29.4324 16.9237 28.964 17.3911C28.4956 17.8586 27.9335 18.0928 27.2778 18.0937H20.9632ZM8.3903 18.0937C7.73257 18.0937 7.16999 17.8595 6.70257 17.3911C6.23516 16.9227 6.00096 16.3607 5.99997 15.7049V9.38885C5.99997 8.7321 6.23417 8.17002 6.70257 7.7026C7.17098 7.23519 7.73306 7.00099 8.38882 7H14.7049C15.3616 7 15.9237 7.2342 16.3911 7.7026C16.8585 8.17101 17.0927 8.73309 17.0937 9.38885V15.7049C17.0937 16.3616 16.8595 16.9237 16.3911 17.3911C15.9227 17.8586 15.3606 18.0928 14.7049 18.0937H8.3903ZM8.3903 30.6667C7.73257 30.6667 7.16999 30.4325 6.70257 29.9641C6.23516 29.4957 6.00096 28.9341 5.99997 28.2793V21.9632C5.99997 21.3065 6.23417 20.7444 6.70257 20.277C7.17098 19.8096 7.73306 19.5754 8.38882 19.5744H14.7049C15.3616 19.5744 15.9237 19.8086 16.3911 20.277C16.8585 20.7454 17.0927 21.3075 17.0937 21.9632V28.2793C17.0937 28.936 16.8595 29.4981 16.3911 29.9655C15.9227 30.433 15.3606 30.6667 14.7049 30.6667H8.3903Z" fill="black"/>
</svg>
