<svg width="24" height="24" viewBox="0 0 24 24" fill="none" xmlns="http://www.w3.org/2000/svg">
<path d="M12.12 2.5C14.5979 2.5 14.9071 2.50912 15.8793 2.55472C16.8505 2.60032 17.5117 2.75262 18.0936 2.9788C18.6955 3.21044 19.2026 3.52417 19.7097 4.03033C20.1734 4.48624 20.5322 5.03772 20.7612 5.6464C20.9865 6.22734 21.1397 6.88945 21.1853 7.86073C21.2281 8.83292 21.24 9.14209 21.24 11.62C21.24 14.0979 21.2309 14.4071 21.1853 15.3793C21.1397 16.3505 20.9865 17.0117 20.7612 17.5936C20.5329 18.2026 20.174 18.7542 19.7097 19.2097C19.2536 19.6732 18.7022 20.0321 18.0936 20.2612C17.5127 20.4865 16.8505 20.6397 15.8793 20.6853C14.9071 20.7281 14.5979 20.74 12.12 20.74C9.6421 20.74 9.33293 20.7309 8.36073 20.6853C7.38946 20.6397 6.72826 20.4865 6.1464 20.2612C5.53748 20.0327 4.9859 19.6738 4.53034 19.2097C4.0665 18.7538 3.70765 18.2023 3.4788 17.5936C3.25262 17.0126 3.10032 16.3505 3.05472 15.3793C3.01186 14.4071 3 14.0979 3 11.62C3 9.14209 3.00912 8.83292 3.05472 7.86073C3.10032 6.88854 3.25262 6.22825 3.4788 5.6464C3.70702 5.03734 4.06595 4.48571 4.53034 4.03033C4.98604 3.56633 5.53757 3.20746 6.1464 2.9788C6.72826 2.75262 7.38854 2.60032 8.36073 2.55472C9.33293 2.51185 9.6421 2.5 12.12 2.5ZM12.12 7.06C10.9106 7.06 9.75076 7.54042 8.89559 8.39559C8.04043 9.25075 7.56 10.4106 7.56 11.62C7.56 12.8294 8.04043 13.9892 8.89559 14.8444C9.75076 15.6996 10.9106 16.18 12.12 16.18C13.3294 16.18 14.4892 15.6996 15.3444 14.8444C16.1996 13.9892 16.68 12.8294 16.68 11.62C16.68 10.4106 16.1996 9.25075 15.3444 8.39559C14.4892 7.54042 13.3294 7.06 12.12 7.06ZM18.048 6.832C18.048 6.52965 17.9279 6.23969 17.7141 6.02589C17.5003 5.8121 17.2103 5.692 16.908 5.692C16.6057 5.692 16.3157 5.8121 16.1019 6.02589C15.8881 6.23969 15.768 6.52965 15.768 6.832C15.768 7.13434 15.8881 7.42431 16.1019 7.6381C16.3157 7.85189 16.6057 7.972 16.908 7.972C17.2103 7.972 17.5003 7.85189 17.7141 7.6381C17.9279 7.42431 18.048 7.13434 18.048 6.832ZM12.12 8.884C12.8456 8.884 13.5415 9.17225 14.0546 9.68535C14.5677 10.1985 14.856 10.8944 14.856 11.62C14.856 12.3456 14.5677 13.0415 14.0546 13.5546C13.5415 14.0677 12.8456 14.356 12.12 14.356C11.3944 14.356 10.6985 14.0677 10.1854 13.5546C9.67226 13.0415 9.384 12.3456 9.384 11.62C9.384 10.8944 9.67226 10.1985 10.1854 9.68535C10.6985 9.17225 11.3944 8.884 12.12 8.884Z" fill="black"/>
</svg>
