<svg width="112" height="107" viewBox="0 0 112 107" fill="none" xmlns="http://www.w3.org/2000/svg">
<path d="M75.765 21.1472C76.1746 20.8184 76.6002 20.5194 77.0328 20.2386C76.614 19.9989 76.1884 19.766 75.7581 19.5377C75.6822 19.9669 75.5856 20.3984 75.4452 20.8276C75.5557 20.9326 75.6615 21.0399 75.765 21.1472Z" fill="#2DABE2"/>
<path d="M60.1037 8.70729C60.2142 8.63652 60.3246 8.57032 60.4373 8.50868L60.5271 8.45845L61.2633 8.16395L61.3623 8.13884C62.1606 7.92652 63.0073 7.81694 63.877 7.81694C65.6279 7.81694 67.4893 8.2507 69.4058 9.10453C71.4489 10.0953 73.0319 11.3784 74.1339 12.8577C77.5437 14.2115 80.7418 15.974 83.673 18.0903C84.2344 18.0446 84.7958 18.0172 85.3526 18.0172C87.9847 18.0172 90.3292 18.5263 92.3539 19.5171C83.5741 10.8008 71.4535 5.40385 58.0836 5.40385C57.8122 5.40385 57.5453 5.41983 57.2761 5.4244C57.6419 5.73945 58.0077 6.07048 58.3735 6.42662C59.1282 7.16858 59.7057 7.9288 60.1037 8.70958V8.70729Z" fill="white" fill-opacity="0.1"/>
<path d="M15.1094 63.3545C14.3433 60.1378 13.9268 56.791 13.9268 53.346C13.9268 36.1393 24.025 21.2316 38.6511 14.1453C39.599 12.1865 40.5676 10.2209 41.5869 8.27353C22.9528 14.9854 9.60593 32.724 9.60593 53.5012C9.60593 57.7681 10.1765 61.9002 11.2303 65.8406C12.1759 65.8018 13.0847 65.779 13.9406 65.7767C14.3317 64.9731 14.7183 64.1626 15.1094 63.3545Z" fill="white" fill-opacity="0.1"/>
<path d="M58.0834 101.601C84.8139 101.601 106.559 80.0247 106.559 53.5012C106.559 49.707 106.099 46.0154 105.256 42.47C104.359 43.9128 103.271 45.4264 101.796 46.7254C101.649 46.8396 101.49 46.9377 101.34 47.0496C101.642 49.1065 101.805 51.2069 101.805 53.3483C101.805 77.3878 82.0944 96.9459 57.8671 96.9459C44.495 96.9459 32.5056 90.9806 24.4367 81.5999C23.5716 82.7984 22.6352 83.9879 21.6344 85.1659C30.5269 95.2314 43.5655 101.603 58.0811 101.603L58.0834 101.601Z" fill="white" fill-opacity="0.1"/>
<path d="M58.0835 0.00012207C28.3505 0.00012207 4.16229 24.0009 4.16229 53.5013C4.16229 58.0695 4.74439 62.5075 5.83727 66.7447C7.04288 66.3589 8.20478 66.11 9.22172 65.9662C9.70949 65.9228 10.1512 65.9068 10.6114 65.8817C10.8162 65.8703 11.0301 65.8543 11.2303 65.8429C10.1765 61.9025 9.60595 57.7681 9.60595 53.5035C9.60595 32.7263 22.9551 14.9877 41.5869 8.27585C41.7203 8.02016 41.8492 7.76218 41.9849 7.50877C42.4796 6.58189 42.9858 5.66186 43.5103 4.74868C44.0994 3.47935 45.4292 1.99771 48.4294 1.92009L48.6365 1.91324C51.4297 1.91324 54.0226 2.88806 56.5443 4.84456C56.7882 5.03405 57.0321 5.21897 57.2737 5.42671C57.5428 5.42215 57.8097 5.40617 58.0812 5.40617C71.4511 5.40617 83.5717 10.8031 92.3515 19.5194C92.7771 19.7272 93.1935 19.9486 93.5893 20.1997C93.8608 20.3687 94.1185 20.565 94.3738 20.7545C96.1501 22.0672 97.5858 23.8776 98.5705 26.0213C98.9363 26.8158 99.2492 27.6468 99.4862 28.5188C99.7462 28.9412 99.9901 29.3749 100.239 29.8064C100.427 29.7334 100.62 29.6672 100.821 29.6124C101.357 29.4594 101.934 29.3613 102.567 29.3613C102.723 29.3613 102.884 29.3658 103.046 29.3795C104.348 29.4092 105.685 30.0279 106.628 31.0758C107.661 32.2218 108.153 33.7674 107.976 35.3152C107.85 37.5845 106.86 39.6688 105.813 41.5682C105.779 41.6276 105.74 41.6869 105.705 41.744C105.563 41.986 105.408 42.2326 105.257 42.4791C106.099 46.0246 106.559 49.7138 106.559 53.5104C106.559 80.0338 84.8118 101.61 58.0835 101.61C43.5679 101.61 30.5293 95.2383 21.6368 85.1727C21.5033 85.3303 21.3791 85.4878 21.2456 85.6407C20.675 86.2982 20.0883 86.9534 19.4786 87.5995C19.007 88.0835 18.4686 88.6017 17.8865 89.12C27.7684 100.09 42.123 107.009 58.0835 107.009C87.8143 107.009 112.002 83.0108 112.002 53.5081C112.002 24.0077 87.8166 0.00697095 58.0858 0.00697095L58.0835 0.00012207Z" fill="#2DABE2"/>
<path d="M13.9268 53.346C13.9268 56.791 14.3433 60.1378 15.1094 63.3545C15.2889 62.9823 15.4682 62.6102 15.6477 62.2358C16.9131 59.6127 18.1624 57.0055 19.3956 54.4052C19.3864 54.0537 19.368 53.6998 19.368 53.346C19.368 41.0865 25.2235 30.1648 34.3024 23.1698L36.3087 18.9737C36.8816 17.8117 37.4246 16.6816 37.9676 15.5539C37.9929 15.4991 38.0205 15.4443 38.0458 15.3918C38.246 14.9763 38.4484 14.5585 38.6486 14.1453C24.0248 21.2316 13.9268 36.1393 13.9268 53.346Z" fill="#2DABE2"/>
<path d="M74.1339 12.8555C74.3663 13.1682 74.5756 13.4878 74.7643 13.8189C75.2866 14.7457 75.6501 15.7297 75.7973 16.7684C75.94 17.6816 75.9192 18.6085 75.7581 19.5377C76.1884 19.7637 76.6117 19.9989 77.0328 20.2386C78.7745 19.1153 80.6842 18.4008 82.6238 18.1907C82.6652 18.1862 82.7089 18.1839 82.7503 18.177C83.0563 18.1405 83.3647 18.1131 83.673 18.0903C80.7441 15.974 77.5436 14.2115 74.1362 12.8577L74.1339 12.8555Z" fill="#2DABE2"/>
<path d="M101.34 47.0472C101.216 47.1409 101.09 47.2276 100.961 47.3166C99.4538 48.3805 97.8663 49.2366 96.1959 49.8941C96.2995 51.0333 96.3616 52.1816 96.3616 53.3459C96.3616 66.7081 89.4063 78.4813 78.9055 85.3096C77.1799 86.4328 75.36 87.4168 73.455 88.2569C68.6854 90.3641 63.4143 91.5421 57.8671 91.5421C48.404 91.5421 39.7346 88.1314 33.0209 82.4902C31.606 82.045 30.1956 81.5975 28.7944 81.1478L27.1792 80.6318C26.8525 80.5405 26.3901 80.3944 25.923 80.246C25.7758 80.2004 25.6285 80.1547 25.4836 80.109C25.2765 80.4172 25.0487 80.7277 24.8301 81.0382C24.7013 81.2231 24.5724 81.4081 24.439 81.5975C32.5056 90.9782 44.495 96.9436 57.8694 96.9436C82.0967 96.9436 101.808 77.3855 101.808 53.3459C101.808 51.2045 101.644 49.1042 101.343 47.0472H101.34Z" fill="#2DABE2"/>
<path d="M106.044 34.2447C105.789 33.9639 105.446 33.8087 105.087 33.8087H105.085C103.698 33.7082 102.708 34.6625 101.841 35.5004C101.668 35.6693 101.496 35.8337 101.326 35.9866C101.052 36.2309 100.783 36.4866 100.516 36.7446C99.853 37.3815 99.218 37.9888 98.4679 38.4157C98.7947 36.0551 98.7578 33.6991 98.3575 31.4002C97.8168 28.1926 96.1649 25.5193 93.8273 24.0673C91.6553 22.6907 88.7471 22.2067 85.3535 22.6359C82.5994 22.9395 79.942 24.6677 78.0692 27.3753C76.0859 30.2016 75.2875 33.8064 75.8443 37.3427C74.7906 37.0117 73.6126 36.9957 72.4484 37.3313C70.6537 38.0276 69.5079 39.5572 68.4036 41.0388L68.1551 41.3699C65.1641 45.6299 62.9714 50.2574 61.6439 55.1041C61.6047 55.216 61.5012 55.3187 61.3885 55.4306C61.3264 55.4922 61.2665 55.5539 61.2297 55.5972C59.35 57.4579 57.5807 59.476 55.8689 61.4256C55.1464 62.2498 54.4079 63.0922 53.6578 63.9232C55.4916 59.6153 57.4633 55.3164 59.3753 51.1455C60.0356 49.7072 60.6959 48.2667 61.3494 46.833C61.7267 46.0453 62.0994 45.2577 62.4721 44.4678C64.1333 40.9566 65.8497 37.3245 67.8859 33.9206C68.33 33.0119 68.3875 32.1901 68.0562 31.5509C67.6328 30.7221 66.9564 30.1035 66.303 29.5053L65.9693 29.1971C64.6119 28.0397 62.4883 26.6585 60.0655 26.6585C59.7825 26.6585 59.4972 26.6767 59.2188 26.7155C58.5792 26.6653 58.2732 27.1836 58.05 27.5557C58.004 27.631 57.9626 27.7063 57.9051 27.7885C56.1611 30.7381 54.6265 33.8566 53.1425 36.8701C52.7927 37.5801 52.443 38.2901 52.0887 39.0024C49.8776 43.5227 47.3744 48.6456 45.1403 53.7503L44.8527 54.4101C43.5597 57.3802 42.2206 60.4508 41.1531 63.5808L41.0334 63.9666C40.7642 64.8295 40.4858 65.7199 40.6653 66.6605C40.8862 67.9823 41.5626 70.3794 43.631 71.5871C45.5061 72.6532 47.9381 72.998 50.4758 72.5208C52.1071 72.119 53.3357 71.0004 54.5229 69.916L54.7645 69.6968C55.7999 68.6969 57.0883 67.4504 58.1536 66.0989C58.379 65.8181 58.6045 65.5304 58.8277 65.245C59.702 64.1264 60.6039 62.9735 61.6968 62.0512C62.104 64.2679 63.1141 66.9527 65.5736 68.222C66.9058 68.9046 68.4726 69.2516 70.2327 69.2516C71.5533 69.2516 72.9844 69.0644 74.5973 68.6786C74.756 69.6283 74.8596 70.6808 74.5444 71.6556C74.3166 72.4249 73.7851 73.1281 73.0489 73.6349C71.6753 74.6074 69.9037 75.2216 67.4787 75.5731C65.2814 75.8745 62.9599 75.9681 60.5901 75.8402C55.4824 75.6165 50.2343 75.0275 44.9908 74.0938C39.0432 73.0002 34.1564 72.0094 29.6514 70.9867C32.9623 65.051 36.0453 58.8801 39.0294 52.9102L39.317 52.3349C41.8502 47.2759 44.3558 42.0981 46.7808 37.0916C48.7503 33.0234 50.7865 28.8159 52.8249 24.6974C54.6725 20.999 56.7662 16.8098 59.1199 12.9059C59.8354 11.5704 58.5079 10.2668 58.0707 9.83763C55.7239 7.53641 53.4968 6.42004 51.2673 6.42004H51.1753C51.0971 6.42461 51.0165 6.42689 50.9337 6.42918C50.3723 6.44287 49.6038 6.46114 49.3255 7.18027C47.3215 10.6412 45.5568 14.3031 43.8519 17.844C43.2997 18.9923 42.7452 20.1406 42.1815 21.289L32.7046 41.1005C30.8271 44.9929 28.9451 48.9653 27.1252 52.8075C24.4309 58.4966 21.6447 64.3798 18.8124 70.1214H17.0523C15.52 70.1214 13.8887 70.1329 12.2667 70.2698C9.92218 70.6054 6.64816 71.5414 4.36348 74.1006C2.87257 75.7329 2.06499 78.1232 2.15012 80.6504C2.15473 82.543 2.54816 86.0496 5.15035 88.2846C6.48481 89.3485 8.29783 89.8667 10.6929 89.8667C10.9345 89.8667 11.1761 89.8622 11.4131 89.853C14.7377 89.7092 17.4296 87.3212 19.1713 85.5337C21.976 82.5476 24.3205 79.4679 26.1427 76.3745C27.3 76.4749 28.4412 76.8379 29.5456 77.1895C29.9666 77.3219 30.3854 77.4543 30.7972 77.573L32.371 78.0753C41.0472 80.8468 50.0203 83.7142 59.1774 85.1935C62.6263 85.7323 65.2653 85.972 67.7386 85.972C69.9244 85.972 71.9031 85.778 73.7874 85.3807C76.4563 84.8008 78.2785 83.7553 79.3484 82.2029C80.6691 80.55 81.2351 78.1803 80.8991 75.6964C80.5034 73.0094 79.3185 70.263 77.372 67.5348C81.732 65.1743 85.1464 61.6151 87.6497 58.7546C90.6292 55.2959 93.1853 51.5541 95.2422 47.6274C97.5914 46.9608 99.6989 45.9198 101.526 44.5181C102.908 43.3035 103.914 41.7488 104.719 40.3813C105.492 38.975 106.33 37.3222 106.433 35.5346C106.486 35.0666 106.337 34.5849 106.033 34.247L106.044 34.2447ZM93.397 33.2517C93.2774 35.5141 92.7758 37.8883 91.7681 40.9224C88.5424 41.2831 86.3635 40.7808 84.8726 39.3631C83.8395 38.4705 83.407 36.966 83.5865 34.8977C83.8925 32.1581 85.6526 29.6948 87.9603 28.7679C88.5677 28.5305 89.1797 28.4072 89.7319 28.4072C90.314 28.4072 90.827 28.5442 91.2619 28.8136C92.6562 29.6697 93.5167 31.4504 93.3993 33.2494L93.397 33.2517ZM88.3836 48.4333C86.3313 51.8692 84.2054 54.5288 81.8931 56.5607C78.2325 59.823 73.9531 61.8982 69.4987 62.5717C69.4297 62.0375 69.6299 61.4918 69.8393 60.9188C69.9083 60.7316 69.975 60.5467 70.0233 60.3869C71.1392 57.6405 72.6002 54.9877 74.0129 52.4239L74.6617 51.2436C75.1012 50.4423 75.5544 49.6479 76.0077 48.8511C76.9349 47.2256 77.892 45.5499 78.7088 43.8195C78.856 43.9656 78.9987 44.1163 79.1482 44.2715C79.4703 44.6094 79.8017 44.9564 80.1767 45.2577C82.3877 47.1161 85.2844 48.2347 88.3813 48.4333H88.3836ZM15.4947 75.2923C14.4823 76.9612 13.3734 78.7008 12.1125 80.2943C11.3349 81.2623 10.403 82.3535 9.21814 83.0841C8.67515 83.4219 8.00563 83.5041 7.60529 83.3603C6.96337 83.059 6.68267 82.3056 6.55843 81.7257C6.26393 80.3491 6.4779 79.0409 7.15203 78.1278C7.98722 76.9201 9.42751 76.0526 11.4292 75.5526C12.4185 75.3266 13.3642 75.2124 14.2408 75.2124C14.671 75.2124 15.0897 75.2398 15.4947 75.2923Z" fill="#010101"/>
<path d="M64.6713 26.5923C64.7795 26.5923 64.8876 26.59 64.9911 26.5854C67.0227 26.5032 70.6833 24.2385 71.9303 23.0719C74.0631 20.91 74.9466 18.9055 74.6406 16.9536C74.2794 14.4195 71.882 12.9036 70.4762 12.221C68.4124 11.301 66.558 11.0453 65.0026 11.4608L64.9313 11.4882C64.1536 11.9151 63.7073 12.7096 63.4036 13.3534C62.3636 15.5633 61.9978 17.917 61.6596 20.5401C61.3651 22.7341 61.6274 24.4212 62.4695 25.6951C63.0078 26.4964 63.9834 26.59 64.669 26.59L64.6713 26.5923Z" fill="#010101"/>
<mask id="path-3-inside-1_814_212" fill="white">
<path d="M47.4239 4.8034C47.6793 4.14591 48.4477 4.23494 49.016 4.20298C51.6182 4.17102 53.8937 5.78507 55.6722 7.52925C56.3601 8.20501 57.1999 9.21864 56.6615 10.2254C54.3585 14.0471 52.3545 18.0377 50.3643 22.026C45.8133 31.2172 41.4441 40.4975 36.8541 49.6658C33.6629 56.049 30.4832 62.4413 26.9929 68.6692C32.2226 69.8677 37.4845 70.9042 42.7533 71.8767C47.9232 72.7968 53.1528 73.3972 58.3986 73.6278C60.7132 73.751 63.0462 73.6734 65.3447 73.3584C67.3487 73.0661 69.3849 72.5456 71.0576 71.3631C71.8053 70.8471 72.4127 70.0937 72.6727 69.2148C73.0339 68.0984 72.8844 66.9022 72.675 65.763C69.7116 66.5095 66.3525 66.8565 63.5432 65.4137C61.1527 64.1832 60.115 61.4527 59.7446 58.9369C58.1386 60.1469 56.9768 61.8203 55.7297 63.375C54.7151 64.6603 53.5417 65.8086 52.3637 66.941C51.1397 68.0505 49.8788 69.2764 48.22 69.6851C46.0089 70.0983 43.6 69.9157 41.6121 68.7879C39.9486 67.8131 39.1065 65.9182 38.8005 64.0804C38.6073 63.0736 38.9961 62.092 39.2791 61.1423C40.418 57.8091 41.8468 54.581 43.2549 51.3506C45.4314 46.3761 47.8127 41.4928 50.1963 36.6141C52.0669 32.8518 53.8592 29.0439 55.9966 25.4185C56.2589 25.035 56.4752 24.4323 57.0435 24.5031C59.4777 24.1606 61.7877 25.3751 63.5823 26.907C64.314 27.5942 65.1261 28.2517 65.5932 29.1626C65.9337 29.8246 65.7289 30.6191 65.4183 31.2538C62.9404 35.3928 60.964 39.8149 58.8841 44.1662C56.0403 50.4101 53.1137 56.6197 50.4747 62.9618C53.445 59.7725 56.1738 56.3572 59.2729 53.2866C59.4409 53.0903 59.6756 52.9259 59.763 52.6725C61.0975 47.7961 63.3269 43.1548 66.2328 39.0181C67.374 37.4977 68.5428 35.806 70.3834 35.0937C71.5844 34.7467 72.9235 34.7923 74.0739 35.3014C73.3791 31.7857 74.0785 27.9754 76.1515 25.0258C77.7805 22.6676 80.2906 20.7385 83.2103 20.4188C86.0035 20.065 89.0359 20.2567 91.477 21.8023C93.9435 23.3342 95.393 26.1148 95.8646 28.9206C96.2972 31.3999 96.2926 33.9476 95.8831 36.4315C97.2727 35.8562 98.2552 34.6668 99.3572 33.692C100.365 32.7833 101.37 31.4798 102.877 31.5894C103.598 31.5779 104.021 32.3131 103.947 32.966C103.846 34.6668 103.075 36.2329 102.27 37.6986C101.403 39.1711 100.436 40.6162 99.1456 41.7485C97.2796 43.1777 95.1169 44.2027 92.8529 44.8282C90.7615 48.8371 88.1869 52.5926 85.2373 56.0147C82.2141 59.4666 78.8319 62.7495 74.7319 64.8909C76.5357 67.3519 77.9645 70.1577 78.4132 73.2077C78.7077 75.3788 78.3257 77.7234 76.9269 79.4744C75.6983 81.2483 73.5815 82.093 71.5453 82.5381C66.7689 83.5426 61.8337 83.0929 57.0527 82.3464C47.3756 80.7848 38.039 77.7097 28.7231 74.7373C27.0964 74.2761 25.4974 73.6141 23.7948 73.5113C21.8391 76.8673 19.4233 79.9538 16.7659 82.7824C14.7481 84.8576 12.2472 86.8712 9.22623 87.0059C7.14632 87.0858 4.85934 86.8507 3.17517 85.5083C1.06534 83.6933 0.296882 80.8008 0.292281 78.1183C0.216355 75.8422 0.869778 73.4794 2.42511 71.7786C4.38538 69.5824 7.27747 68.4569 10.1373 68.0505C12.3645 67.861 14.6032 67.9135 16.8349 67.9044C21.6114 58.2315 26.1255 48.4239 30.8145 38.7053C33.9735 32.0985 37.1302 25.4939 40.2915 18.8915C42.6129 14.1681 44.7826 9.36247 47.4239 4.80797M85.6607 25.9413C83.0815 26.9778 81.3881 29.6237 81.0821 32.3313C80.9417 33.991 81.135 35.9041 82.4787 37.0662C84.4113 38.9085 87.3172 38.9816 89.8205 38.6779C90.6833 36.105 91.385 33.45 91.53 30.7332C91.6496 28.916 90.819 26.9823 89.2407 26.0144C88.1662 25.3432 86.7949 25.5007 85.6607 25.9413ZM76.423 40.7554C75.1944 43.447 73.6206 45.9651 72.201 48.5586C70.5537 51.5652 68.8373 54.5559 67.542 57.7338C67.2774 58.5853 66.7873 59.4803 67.0657 60.3934C71.8536 59.7314 76.3241 57.4644 79.9179 54.2614C82.6949 51.8232 84.8807 48.7869 86.7374 45.6067C83.6567 45.5131 80.5713 44.4721 78.1969 42.4813C77.5481 41.9608 77.0396 41.3011 76.4207 40.7554M9.17562 72.71C7.47073 73.1346 5.73594 73.9268 4.70519 75.413C3.89761 76.5066 3.78948 77.9608 4.06557 79.2552C4.21742 79.9881 4.57174 80.7734 5.28729 81.1113C5.92461 81.3419 6.64245 81.1638 7.20384 80.8145C8.38415 80.0885 9.31136 79.0292 10.1765 77.9562C11.5339 76.2417 12.6981 74.3903 13.8255 72.5205C12.2886 72.226 10.6941 72.363 9.17562 72.7077"/>
<path d="M63.3546 9.8054C65.1031 9.33739 66.9944 9.82594 68.6142 10.5496C70.4341 11.4354 72.2908 12.9057 72.5945 15.0402C72.9557 17.3163 71.4832 19.3573 69.9739 20.8914C68.7959 21.9941 65.1929 24.2314 63.2487 24.309C62.4549 24.3387 61.4932 24.2885 61.0032 23.5648C60.0483 22.1151 60.0184 20.291 60.2439 18.6245C60.5545 16.2159 60.9157 13.7503 61.9603 11.529C62.2755 10.8601 62.6827 10.173 63.3546 9.80768"/>
</mask>
<path d="M47.4239 4.8034C47.6793 4.14591 48.4477 4.23494 49.016 4.20298C51.6182 4.17102 53.8937 5.78507 55.6722 7.52925C56.3601 8.20501 57.1999 9.21864 56.6615 10.2254C54.3585 14.0471 52.3545 18.0377 50.3643 22.026C45.8133 31.2172 41.4441 40.4975 36.8541 49.6658C33.6629 56.049 30.4832 62.4413 26.9929 68.6692C32.2226 69.8677 37.4845 70.9042 42.7533 71.8767C47.9232 72.7968 53.1528 73.3972 58.3986 73.6278C60.7132 73.751 63.0462 73.6734 65.3447 73.3584C67.3487 73.0661 69.3849 72.5456 71.0576 71.3631C71.8053 70.8471 72.4127 70.0937 72.6727 69.2148C73.0339 68.0984 72.8844 66.9022 72.675 65.763C69.7116 66.5095 66.3525 66.8565 63.5432 65.4137C61.1527 64.1832 60.115 61.4527 59.7446 58.9369C58.1386 60.1469 56.9768 61.8203 55.7297 63.375C54.7151 64.6603 53.5417 65.8086 52.3637 66.941C51.1397 68.0505 49.8788 69.2764 48.22 69.6851C46.0089 70.0983 43.6 69.9157 41.6121 68.7879C39.9486 67.8131 39.1065 65.9182 38.8005 64.0804C38.6073 63.0736 38.9961 62.092 39.2791 61.1423C40.418 57.8091 41.8468 54.581 43.2549 51.3506C45.4314 46.3761 47.8127 41.4928 50.1963 36.6141C52.0669 32.8518 53.8592 29.0439 55.9966 25.4185C56.2589 25.035 56.4752 24.4323 57.0435 24.5031C59.4777 24.1606 61.7877 25.3751 63.5823 26.907C64.314 27.5942 65.1261 28.2517 65.5932 29.1626C65.9337 29.8246 65.7289 30.6191 65.4183 31.2538C62.9404 35.3928 60.964 39.8149 58.8841 44.1662C56.0403 50.4101 53.1137 56.6197 50.4747 62.9618C53.445 59.7725 56.1738 56.3572 59.2729 53.2866C59.4409 53.0903 59.6756 52.9259 59.763 52.6725C61.0975 47.7961 63.3269 43.1548 66.2328 39.0181C67.374 37.4977 68.5428 35.806 70.3834 35.0937C71.5844 34.7467 72.9235 34.7923 74.0739 35.3014C73.3791 31.7857 74.0785 27.9754 76.1515 25.0258C77.7805 22.6676 80.2906 20.7385 83.2103 20.4188C86.0035 20.065 89.0359 20.2567 91.477 21.8023C93.9435 23.3342 95.393 26.1148 95.8646 28.9206C96.2972 31.3999 96.2926 33.9476 95.8831 36.4315C97.2727 35.8562 98.2552 34.6668 99.3572 33.692C100.365 32.7833 101.37 31.4798 102.877 31.5894C103.598 31.5779 104.021 32.3131 103.947 32.966C103.846 34.6668 103.075 36.2329 102.27 37.6986C101.403 39.1711 100.436 40.6162 99.1456 41.7485C97.2796 43.1777 95.1169 44.2027 92.8529 44.8282C90.7615 48.8371 88.1869 52.5926 85.2373 56.0147C82.2141 59.4666 78.8319 62.7495 74.7319 64.8909C76.5357 67.3519 77.9645 70.1577 78.4132 73.2077C78.7077 75.3788 78.3257 77.7234 76.9269 79.4744C75.6983 81.2483 73.5815 82.093 71.5453 82.5381C66.7689 83.5426 61.8337 83.0929 57.0527 82.3464C47.3756 80.7848 38.039 77.7097 28.7231 74.7373C27.0964 74.2761 25.4974 73.6141 23.7948 73.5113C21.8391 76.8673 19.4233 79.9538 16.7659 82.7824C14.7481 84.8576 12.2472 86.8712 9.22623 87.0059C7.14632 87.0858 4.85934 86.8507 3.17517 85.5083C1.06534 83.6933 0.296882 80.8008 0.292281 78.1183C0.216355 75.8422 0.869778 73.4794 2.42511 71.7786C4.38538 69.5824 7.27747 68.4569 10.1373 68.0505C12.3645 67.861 14.6032 67.9135 16.8349 67.9044C21.6114 58.2315 26.1255 48.4239 30.8145 38.7053C33.9735 32.0985 37.1302 25.4939 40.2915 18.8915C42.6129 14.1681 44.7826 9.36247 47.4239 4.80797M85.6607 25.9413C83.0815 26.9778 81.3881 29.6237 81.0821 32.3313C80.9417 33.991 81.135 35.9041 82.4787 37.0662C84.4113 38.9085 87.3172 38.9816 89.8205 38.6779C90.6833 36.105 91.385 33.45 91.53 30.7332C91.6496 28.916 90.819 26.9823 89.2407 26.0144C88.1662 25.3432 86.7949 25.5007 85.6607 25.9413ZM76.423 40.7554C75.1944 43.447 73.6206 45.9651 72.201 48.5586C70.5537 51.5652 68.8373 54.5559 67.542 57.7338C67.2774 58.5853 66.7873 59.4803 67.0657 60.3934C71.8536 59.7314 76.3241 57.4644 79.9179 54.2614C82.6949 51.8232 84.8807 48.7869 86.7374 45.6067C83.6567 45.5131 80.5713 44.4721 78.1969 42.4813C77.5481 41.9608 77.0396 41.3011 76.4207 40.7554M9.17562 72.71C7.47073 73.1346 5.73594 73.9268 4.70519 75.413C3.89761 76.5066 3.78948 77.9608 4.06557 79.2552C4.21742 79.9881 4.57174 80.7734 5.28729 81.1113C5.92461 81.3419 6.64245 81.1638 7.20384 80.8145C8.38415 80.0885 9.31136 79.0292 10.1765 77.9562C11.5339 76.2417 12.6981 74.3903 13.8255 72.5205C12.2886 72.226 10.6941 72.363 9.17562 72.7077" fill="#FFD800"/>
<path d="M63.3546 9.8054C65.1031 9.33739 66.9944 9.82594 68.6142 10.5496C70.4341 11.4354 72.2908 12.9057 72.5945 15.0402C72.9557 17.3163 71.4832 19.3573 69.9739 20.8914C68.7959 21.9941 65.1929 24.2314 63.2487 24.309C62.4549 24.3387 61.4932 24.2885 61.0032 23.5648C60.0483 22.1151 60.0184 20.291 60.2439 18.6245C60.5545 16.2159 60.9157 13.7503 61.9603 11.529C62.2755 10.8601 62.6827 10.173 63.3546 9.80768" fill="#FFD800"/>
<path d="M49.016 4.20298L49.0038 3.20306L48.9818 3.20333L48.9599 3.20456L49.016 4.20298ZM55.6722 7.52925L56.373 6.81586L56.3724 6.81529L55.6722 7.52925ZM56.6615 10.2254L57.518 10.7416L57.5313 10.7196L57.5434 10.697L56.6615 10.2254ZM50.3643 22.026L49.4695 21.5795L49.4681 21.5823L50.3643 22.026ZM36.8541 49.6658L35.9599 49.2181L35.9596 49.2187L36.8541 49.6658ZM26.9929 68.6692L26.1206 68.1803L25.4675 69.3455L26.7695 69.6439L26.9929 68.6692ZM42.7533 71.8767L42.5718 72.8601L42.5781 72.8613L42.7533 71.8767ZM58.3986 73.6278L58.4518 72.6291L58.4425 72.6287L58.3986 73.6278ZM65.3447 73.3584L65.4805 74.3491L65.489 74.3479L65.3447 73.3584ZM71.0576 71.3631L70.4896 70.5399L70.4803 70.5465L71.0576 71.3631ZM72.6727 69.2148L71.7213 68.9069L71.7174 68.919L71.7138 68.9311L72.6727 69.2148ZM72.675 65.763L73.6585 65.5822L73.4656 64.5326L72.4307 64.7933L72.675 65.763ZM63.5432 65.4137L63.0855 66.3028L63.0863 66.3032L63.5432 65.4137ZM59.7446 58.9369L60.7339 58.7912L60.4885 57.1244L59.1428 58.1382L59.7446 58.9369ZM55.7297 63.375L54.9496 62.7493L54.9448 62.7554L55.7297 63.375ZM52.3637 66.941L53.0353 67.6819L53.0461 67.6721L53.0567 67.6619L52.3637 66.941ZM48.22 69.6851L48.4037 70.6681L48.4316 70.6628L48.4592 70.6561L48.22 69.6851ZM41.6121 68.7879L41.1065 69.6507L41.1187 69.6577L41.6121 68.7879ZM38.8005 64.0804L39.787 63.9162L39.7849 63.904L39.7826 63.8919L38.8005 64.0804ZM39.2791 61.1423L38.3328 60.8189L38.3264 60.8377L38.3207 60.8567L39.2791 61.1423ZM43.2549 51.3506L42.3387 50.9498L42.3382 50.9511L43.2549 51.3506ZM50.1963 36.6141L49.3009 36.1689L49.2978 36.1752L50.1963 36.6141ZM55.9966 25.4185L55.1712 24.854L55.1522 24.8817L55.1352 24.9106L55.9966 25.4185ZM57.0435 24.5031L56.9199 25.4954L57.0515 25.5118L57.1828 25.4933L57.0435 24.5031ZM63.5823 26.907L64.2669 26.1781L64.2496 26.1618L64.2315 26.1464L63.5823 26.907ZM65.5932 29.1626L64.7034 29.6188L64.7039 29.6199L65.5932 29.1626ZM65.4183 31.2538L66.2763 31.7674L66.298 31.7312L66.3165 31.6933L65.4183 31.2538ZM58.8841 44.1662L57.9819 43.7349L57.9779 43.7433L57.974 43.7517L58.8841 44.1662ZM50.4747 62.9618L49.5515 62.5776L47.4132 67.7163L51.2065 63.6433L50.4747 62.9618ZM59.2729 53.2866L59.9768 53.997L60.006 53.968L60.0328 53.9366L59.2729 53.2866ZM59.763 52.6725L60.7083 52.9986L60.7189 52.9678L60.7275 52.9364L59.763 52.6725ZM66.2328 39.0181L65.433 38.4178L65.4236 38.4304L65.4145 38.4433L66.2328 39.0181ZM70.3834 35.0937L70.1059 34.133L70.0636 34.1452L70.0225 34.1611L70.3834 35.0937ZM74.0739 35.3014L73.6692 36.2159L75.4278 36.9941L75.0549 35.1076L74.0739 35.3014ZM76.1515 25.0258L76.9697 25.6009L76.9743 25.5942L76.1515 25.0258ZM83.2103 20.4188L83.3191 21.4129L83.3276 21.412L83.336 21.4109L83.2103 20.4188ZM91.477 21.8023L90.9421 22.6472L90.9494 22.6518L91.477 21.8023ZM95.8646 28.9206L94.8785 29.0864L94.8795 29.0924L95.8646 28.9206ZM95.8831 36.4315L94.8964 36.2688L94.6038 38.0434L96.2656 37.3555L95.8831 36.4315ZM99.3572 33.692L100.02 34.441L100.027 34.4346L99.3572 33.692ZM102.877 31.5894L102.805 32.5867L102.849 32.5899L102.893 32.5892L102.877 31.5894ZM103.947 32.966L102.954 32.8539L102.951 32.8802L102.949 32.9066L103.947 32.966ZM102.27 37.6986L103.132 38.2061L103.139 38.1932L103.146 38.1801L102.27 37.6986ZM99.1456 41.7485L99.7536 42.5424L99.78 42.5222L99.805 42.5002L99.1456 41.7485ZM92.8529 44.8282L92.5866 43.8643L92.1674 43.9802L91.9663 44.3657L92.8529 44.8282ZM85.2373 56.0147L85.9896 56.6736L85.9948 56.6676L85.2373 56.0147ZM74.7319 64.8909L74.269 64.0045L73.2373 64.5433L73.9254 65.482L74.7319 64.8909ZM78.4132 73.2077L79.4042 73.0733L79.4025 73.0622L78.4132 73.2077ZM76.9269 79.4744L76.1456 78.8502L76.1243 78.8769L76.1048 78.905L76.9269 79.4744ZM71.5453 82.5381L71.7511 83.5168L71.7589 83.5151L71.5453 82.5381ZM57.0527 82.3464L56.8934 83.3336L56.8984 83.3344L57.0527 82.3464ZM28.7231 74.7373L29.0271 73.7846L29.0115 73.7796L28.9958 73.7752L28.7231 74.7373ZM23.7948 73.5113L23.855 72.5131L23.2407 72.4761L22.9308 73.0078L23.7948 73.5113ZM16.7659 82.7824L17.4829 83.4795L17.4889 83.4734L17.4947 83.4671L16.7659 82.7824ZM9.22623 87.0059L9.26462 88.0052L9.27078 88.0049L9.22623 87.0059ZM3.17517 85.5083L2.52302 86.2664L2.53723 86.2786L2.55188 86.2903L3.17517 85.5083ZM0.292281 78.1183L1.29228 78.1166L1.29225 78.1008L1.29172 78.085L0.292281 78.1183ZM2.42511 71.7786L3.16312 72.4535L3.17115 72.4445L2.42511 71.7786ZM10.1373 68.0505L10.0526 67.0541L10.0245 67.0565L9.99667 67.0604L10.1373 68.0505ZM16.8349 67.9044L16.839 68.9044L17.4577 68.9018L17.7316 68.3471L16.8349 67.9044ZM30.8145 38.7053L31.7152 39.1399L31.7167 39.1367L30.8145 38.7053ZM40.2915 18.8915L39.3939 18.4504L39.3895 18.4597L40.2915 18.8915ZM85.6607 25.9413L85.2985 25.0091L85.2878 25.0134L85.6607 25.9413ZM81.0821 32.3313L80.0884 32.219L80.0868 32.233L80.0856 32.2471L81.0821 32.3313ZM82.4787 37.0662L83.1687 36.3424L83.1511 36.3256L83.1328 36.3098L82.4787 37.0662ZM89.8205 38.6779L89.9409 39.6707L90.5678 39.5946L90.7686 38.9959L89.8205 38.6779ZM91.53 30.7332L90.532 30.6675L90.5314 30.68L91.53 30.7332ZM89.2407 26.0144L88.7109 26.8625L88.7179 26.8668L89.2407 26.0144ZM72.201 48.5586L73.078 49.0391L73.0782 49.0387L72.201 48.5586ZM67.542 57.7338L66.6159 57.3563L66.5997 57.3961L66.587 57.4371L67.542 57.7338ZM67.0657 60.3934L66.1092 60.6851L66.3579 61.5008L67.2027 61.384L67.0657 60.3934ZM79.9179 54.2614L79.2581 53.5099L79.2526 53.5149L79.9179 54.2614ZM86.7374 45.6067L87.601 46.1109L88.4491 44.6583L86.7678 44.6072L86.7374 45.6067ZM78.1969 42.4813L78.8394 41.715L78.8311 41.7081L78.8227 41.7013L78.1969 42.4813ZM4.70519 75.413L5.50961 76.0071L5.51844 75.9951L5.52691 75.9829L4.70519 75.413ZM4.06557 79.2552L5.04479 79.0523L5.04357 79.0466L4.06557 79.2552ZM5.28729 81.1113L4.8603 82.0155L4.90284 82.0356L4.94707 82.0516L5.28729 81.1113ZM7.20384 80.8145L6.67993 79.9627L6.67556 79.9654L7.20384 80.8145ZM10.1765 77.9562L10.955 78.5839L10.9605 78.577L10.1765 77.9562ZM13.8255 72.5205L14.6819 73.0369L15.4226 71.8084L14.0137 71.5384L13.8255 72.5205ZM68.6142 10.5496L69.0518 9.65049L69.037 9.64332L69.0221 9.63663L68.6142 10.5496ZM72.5945 15.0402L71.6045 15.1811L71.6056 15.189L71.6069 15.197L72.5945 15.0402ZM69.9739 20.8914L70.6573 21.6215L70.6723 21.6074L70.6868 21.5928L69.9739 20.8914ZM63.2487 24.309L63.2861 25.3083L63.2886 25.3082L63.2487 24.309ZM61.0032 23.5648L60.168 24.1149L60.1751 24.1255L61.0032 23.5648ZM60.2439 18.6245L61.2349 18.7585L61.2357 18.7524L60.2439 18.6245ZM61.9603 11.529L61.0557 11.1028L61.0553 11.1035L61.9603 11.529ZM48.356 5.16547C48.351 5.17832 48.328 5.21694 48.287 5.24662C48.2576 5.26793 48.2534 5.25915 48.3143 5.24595C48.3775 5.23227 48.4671 5.22263 48.6046 5.21697C48.6724 5.21418 48.7396 5.2127 48.8201 5.21067C48.896 5.20877 48.984 5.20636 49.0722 5.2014L48.9599 3.20456C48.8225 3.21229 48.2867 3.20554 47.8909 3.29129C47.3947 3.39877 46.7816 3.69509 46.4917 4.44133L48.356 5.16547ZM49.0283 5.20291C51.213 5.17607 53.2375 6.54221 54.972 8.24322L56.3724 6.81529C54.5499 5.02793 52.0235 3.16597 49.0038 3.20306L49.0283 5.20291ZM54.9714 8.24265C55.2978 8.56321 55.5787 8.88891 55.7298 9.19542C55.867 9.47366 55.8495 9.62341 55.7797 9.75386L57.5434 10.697C58.012 9.82066 57.8438 8.9602 57.5237 8.31098C57.2175 7.69005 56.7346 7.17105 56.373 6.81586L54.9714 8.24265ZM55.8051 9.70927C53.4785 13.5699 51.4578 17.5949 49.4695 21.5795L51.2591 22.4725C53.2511 18.4805 55.2385 14.5243 57.518 10.7416L55.8051 9.70927ZM49.4681 21.5823C44.8952 30.8179 40.559 40.0316 35.9599 49.2181L37.7483 50.1135C42.3292 40.9633 46.7315 31.6165 51.2605 22.4698L49.4681 21.5823ZM35.9596 49.2187C32.7658 55.6072 29.5971 61.977 26.1206 68.1803L27.8653 69.1581C31.3693 62.9056 34.56 56.4908 37.7485 50.113L35.9596 49.2187ZM26.7695 69.6439C32.0185 70.8469 37.2958 71.8863 42.5718 72.8601L42.9348 70.8933C37.6732 69.9221 32.4266 68.8886 27.2163 67.6944L26.7695 69.6439ZM42.5781 72.8613C47.7885 73.7885 53.0621 74.3942 58.3547 74.6268L58.4425 72.6287C53.2436 72.4002 48.0578 71.805 42.9285 70.8922L42.5781 72.8613ZM58.3454 74.6263C60.7175 74.7527 63.1141 74.6735 65.4805 74.3491L65.2089 72.3676C62.9784 72.6734 60.7089 72.7494 58.4518 72.6292L58.3454 74.6263ZM65.489 74.3479C67.5468 74.0478 69.7697 73.4983 71.6349 72.1796L70.4803 70.5465C69.0001 71.593 67.1506 72.0845 65.2004 72.3688L65.489 74.3479ZM71.6255 72.1861C72.5295 71.5624 73.2966 70.6311 73.6316 69.4984L71.7138 68.9311C71.5288 69.5564 71.0811 70.1318 70.4896 70.54L71.6255 72.1861ZM73.6241 69.5226C74.0696 68.146 73.8691 66.7278 73.6585 65.5822L71.6915 65.9437C71.8997 67.0766 71.9983 68.0508 71.7213 68.9069L73.6241 69.5226ZM72.4307 64.7933C69.5227 65.5258 66.471 65.7932 64.0001 64.5241L63.0863 66.3032C66.2339 67.9198 69.9006 67.4931 72.9193 66.7327L72.4307 64.7933ZM64.0009 64.5245C62.0549 63.5229 61.0912 61.2179 60.7339 58.7912L58.7553 59.0826C59.1388 61.6876 60.2504 64.8434 63.0855 66.3028L64.0009 64.5245ZM59.1428 58.1382C57.4067 59.4463 56.1345 61.2721 54.9497 62.7493L56.5098 64.0007C57.819 62.3685 58.8706 60.8475 60.3463 59.7356L59.1428 58.1382ZM54.9448 62.7554C53.9778 63.9804 52.8507 65.0857 51.6707 66.22L53.0567 67.6619C54.2326 66.5315 55.4524 65.3402 56.5146 63.9946L54.9448 62.7554ZM51.6921 66.2001C50.402 67.3695 49.3414 68.3789 47.9808 68.7141L48.4592 70.6561C50.4162 70.1739 51.8774 68.7315 53.0353 67.6819L51.6921 66.2001ZM48.0363 68.7021C45.9883 69.0848 43.8344 68.899 42.1055 67.9181L41.1187 69.6577C43.3655 70.9324 46.0295 71.1118 48.4037 70.6681L48.0363 68.7021ZM42.1177 67.9251C40.8209 67.1651 40.0702 65.6173 39.787 63.9162L37.8141 64.2447C38.1429 66.2191 39.0764 68.461 41.1065 69.6507L42.1177 67.9251ZM39.7826 63.8919C39.7211 63.5717 39.7454 63.2228 39.8376 62.806C39.9358 62.3623 40.0783 61.9619 40.2375 61.4278L38.3207 60.8567C38.1969 61.2723 38.0035 61.8376 37.8848 62.3739C37.7602 62.937 37.6867 63.5823 37.8185 64.2689L39.7826 63.8919ZM40.2254 61.4656C41.3483 58.1793 42.7584 54.9922 44.1716 51.7502L42.3382 50.9511C40.9352 54.1698 39.4877 57.4389 38.3328 60.8189L40.2254 61.4656ZM44.171 51.7515C46.3378 46.7992 48.71 41.9343 51.0948 37.0531L49.2978 36.1752C46.9154 41.0514 44.525 45.953 42.3387 50.9498L44.171 51.7515ZM51.0918 37.0593C52.9755 33.2705 54.7443 29.5116 56.858 25.9264L55.1352 24.9106C52.9741 28.5761 51.1583 32.4332 49.3009 36.169L51.0918 37.0593ZM56.8221 25.983C56.8701 25.9127 56.9132 25.8432 56.949 25.7842C56.967 25.7543 56.9848 25.7246 57.0008 25.6977C57.0173 25.67 57.0321 25.6452 57.0469 25.6207C57.1091 25.5178 57.1462 25.4634 57.174 25.43C57.2002 25.3986 57.1861 25.4256 57.127 25.4554C57.0528 25.4928 56.973 25.502 56.9199 25.4954L57.1671 23.5107C56.4201 23.4177 55.9176 23.8131 55.6366 24.1508C55.5065 24.3072 55.4048 24.471 55.335 24.5867C55.251 24.7256 55.2155 24.7892 55.1712 24.854L56.8221 25.983ZM57.1828 25.4933C59.1996 25.2096 61.2264 26.2108 62.9331 27.6676L64.2315 26.1464C62.349 24.5395 59.7558 23.1116 56.9042 23.5128L57.1828 25.4933ZM62.8977 27.6359C63.7123 28.401 64.3376 28.9056 64.7034 29.6188L66.483 28.7063C65.9146 27.5977 64.9156 26.7874 64.2669 26.1781L62.8977 27.6359ZM64.7039 29.6199C64.8177 29.8412 64.7969 30.2487 64.5201 30.8142L66.3165 31.6933C66.661 30.9895 67.0497 29.808 66.4825 28.7052L64.7039 29.6199ZM64.5603 30.7401C62.0511 34.9313 60.0463 39.4161 57.9819 43.7349L59.7863 44.5974C61.8818 40.2137 63.8296 35.8542 66.2763 31.7674L64.5603 30.7401ZM57.974 43.7517C55.1375 49.9796 52.1989 56.2153 49.5515 62.5776L51.398 63.346C54.0286 57.0241 56.9431 50.8405 59.7942 44.5807L57.974 43.7517ZM51.2065 63.6433C54.2634 60.3611 56.8783 57.0669 59.9768 53.997L58.5691 52.5762C55.4693 55.6475 52.6267 59.1839 49.743 62.2802L51.2065 63.6433ZM60.0328 53.9366C60.0476 53.9194 60.0699 53.8958 60.1151 53.8506C60.1523 53.8134 60.2189 53.748 60.2801 53.6823C60.4049 53.5483 60.5969 53.3216 60.7083 52.9986L58.8177 52.3463C58.8417 52.2768 58.8726 52.259 58.8163 52.3195C58.7868 52.3511 58.7578 52.3795 58.701 52.4363C58.6523 52.485 58.5823 52.5556 58.513 52.6365L60.0328 53.9366ZM60.7275 52.9364C62.0301 48.1766 64.2083 43.6398 67.0511 39.5929L65.4145 38.4433C62.4455 42.6698 60.1648 47.4156 58.7985 52.4085L60.7275 52.9364ZM67.0326 39.6184C68.237 38.0138 69.229 36.6127 70.7443 36.0263L70.0225 34.1611C67.8566 34.9993 66.511 36.9815 65.433 38.4178L67.0326 39.6184ZM70.661 36.0544C71.6604 35.7656 72.7557 35.8116 73.6692 36.2159L74.4786 34.387C73.0913 33.7731 71.5085 33.7277 70.1059 34.133L70.661 36.0544ZM75.0549 35.1076C74.409 31.8392 75.0652 28.3107 76.9697 25.6009L75.3334 24.4508C73.0918 27.6402 72.3491 31.7322 73.0929 35.4953L75.0549 35.1076ZM76.9743 25.5942C78.4931 23.3954 80.7716 21.6918 83.3191 21.4129L83.1015 19.4248C79.8097 19.7851 77.0679 21.9397 75.3287 24.4575L76.9743 25.5942ZM83.336 21.4109C86.0245 21.0703 88.783 21.2802 90.9421 22.6472L92.012 20.9574C89.2888 19.2333 85.9824 19.0597 83.0846 19.4268L83.336 21.4109ZM90.9494 22.6518C93.1045 23.9903 94.4395 26.4748 94.8785 29.0864L96.8508 28.7548C96.3465 25.7549 94.7824 22.6781 92.0046 20.9528L90.9494 22.6518ZM94.8795 29.0924C95.292 31.4568 95.2884 33.8914 94.8964 36.2688L96.8697 36.5942C97.2968 34.0039 97.3024 31.343 96.8498 28.7487L94.8795 29.0924ZM96.2656 37.3555C97.1068 37.0072 97.7956 36.485 98.3893 35.9617C98.6859 35.7002 98.9702 35.4279 99.2368 35.1724C99.5084 34.912 99.7619 34.6691 100.02 34.441L98.6947 32.9429C98.4016 33.2022 98.1189 33.4735 97.853 33.7284C97.582 33.988 97.3272 34.2318 97.0667 34.4614C96.5462 34.9203 96.049 35.2805 95.5005 35.5076L96.2656 37.3555ZM100.027 34.4346C100.293 34.1948 100.575 33.9138 100.812 33.6873C101.064 33.4459 101.297 33.2342 101.531 33.0578C101.995 32.7087 102.386 32.5563 102.805 32.5867L102.95 30.592C101.861 30.5128 100.996 30.9574 100.329 31.4598C99.9975 31.7092 99.6959 31.9869 99.4292 32.2421C99.147 32.5121 98.9255 32.7348 98.6876 32.9493L100.027 34.4346ZM102.893 32.5892C102.895 32.5892 102.885 32.5884 102.874 32.5824C102.867 32.5786 102.876 32.5816 102.894 32.6059C102.911 32.6308 102.93 32.6694 102.943 32.7189C102.955 32.7683 102.958 32.8157 102.954 32.8539L104.941 33.078C105.005 32.5135 104.858 31.9201 104.527 31.4512C104.182 30.9641 103.605 30.5777 102.862 30.5895L102.893 32.5892ZM102.949 32.9066C102.862 34.3615 102.198 35.7525 101.394 37.217L103.146 38.1801C103.952 36.7133 104.83 34.9721 104.946 33.0254L102.949 32.9066ZM101.408 37.191C100.554 38.6415 99.653 39.9731 98.4861 40.9968L99.805 42.5002C101.22 41.2592 102.251 39.7006 103.132 38.2061L101.408 37.191ZM98.5375 40.9546C96.7837 42.2979 94.7397 43.2694 92.5866 43.8643L93.1192 45.7921C95.494 45.136 97.7756 44.0574 99.7536 42.5424L98.5375 40.9546ZM91.9663 44.3657C89.912 48.3035 87.3814 51.9955 84.4798 55.3619L85.9948 56.6676C88.9925 53.1897 91.611 49.3707 93.7395 45.2908L91.9663 44.3657ZM84.485 55.3559C81.4896 58.776 78.2048 61.9488 74.269 64.0045L75.1949 65.7773C79.459 63.5501 82.9386 60.1572 85.9896 56.6736L84.485 55.3559ZM73.9254 65.482C75.6693 67.8613 77.0065 70.516 77.4238 73.3532L79.4025 73.0622C78.9226 69.7994 77.4022 66.8425 75.5385 64.2997L73.9254 65.482ZM77.4222 73.3421C77.6916 75.328 77.3265 77.372 76.1456 78.8502L77.7082 80.0986C79.325 78.0747 79.7237 75.4296 79.4041 73.0733L77.4222 73.3421ZM76.1048 78.905C75.097 80.3601 73.2954 81.1319 71.3317 81.5612L71.7589 83.5151C73.8676 83.054 76.2995 82.1365 77.7489 80.0438L76.1048 78.905ZM71.3395 81.5595C66.7474 82.5253 61.9604 82.1006 57.207 81.3583L56.8984 83.3344C61.707 84.0852 66.7904 84.56 71.7511 83.5167L71.3395 81.5595ZM57.212 81.3591C47.6237 79.8119 38.3641 76.7638 29.0271 73.7846L28.4191 75.6899C37.7138 78.6556 47.1275 81.7577 56.8934 83.3336L57.212 81.3591ZM28.9958 73.7752C28.6061 73.6647 28.2151 73.5413 27.8085 73.4124C27.4066 73.2849 26.988 73.1515 26.5653 73.0293C25.7195 72.7846 24.8131 72.571 23.855 72.5131L23.7346 74.5095C24.4791 74.5544 25.2235 74.7232 26.0096 74.9505C26.4028 75.0643 26.7954 75.1893 27.2039 75.3188C27.6079 75.4469 28.0268 75.5793 28.4503 75.6994L28.9958 73.7752ZM22.9308 73.0078C21.0207 76.2856 18.654 79.3122 16.0371 82.0977L17.4947 83.4671C20.1926 80.5954 22.6576 77.4489 24.6588 74.0148L22.9308 73.0078ZM16.049 82.0853C14.0527 84.1384 11.7893 85.8906 9.18169 86.0069L9.27078 88.0049C12.705 87.8518 15.4436 85.5769 17.4829 83.4795L16.049 82.0853ZM9.18785 86.0066C7.16389 86.0844 5.18939 85.8349 3.79846 84.7263L2.55188 86.2903C4.52929 87.8664 7.12876 88.0872 9.26462 88.0052L9.18785 86.0066ZM3.82731 84.7502C2.02781 83.2022 1.29663 80.6529 1.29228 78.1166L-0.707718 78.12C-0.702865 80.9487 0.102877 84.1845 2.52302 86.2664L3.82731 84.7502ZM1.29172 78.085C1.22229 76.0036 1.82438 73.9173 3.16307 72.4534L1.68715 71.1037C-0.084827 73.0414 -0.789583 75.6809 -0.707163 78.1517L1.29172 78.085ZM3.17115 72.4445C4.92032 70.4848 7.55676 69.4272 10.278 69.0405L9.99667 67.0604C6.99817 67.4865 3.85044 68.6799 1.67907 71.1127L3.17115 72.4445ZM10.2221 69.0469C12.3963 68.8619 14.5697 68.9137 16.839 68.9044L16.8308 66.9044C14.6366 66.9134 12.3328 66.8601 10.0526 67.0541L10.2221 69.0469ZM17.7316 68.3471C22.5077 58.6748 27.0396 48.8305 31.7152 39.1399L29.9139 38.2708C25.2114 48.0173 20.715 57.7881 15.9383 67.4616L17.7316 68.3471ZM31.7167 39.1367C34.8758 32.5296 38.0323 25.9254 41.1934 19.3234L39.3895 18.4597C36.2281 25.0623 33.0712 31.6673 29.9123 38.274L31.7167 39.1367ZM41.1889 19.3326C43.5297 14.5699 45.6706 9.82451 48.2889 5.30964L46.5588 4.30629C43.8945 8.90043 41.6962 13.7663 39.394 18.4504L41.1889 19.3326ZM85.2878 25.0134C82.3066 26.2114 80.4278 29.2162 80.0884 32.219L82.0758 32.4436C82.3484 30.0312 83.8563 27.7441 86.0335 26.8692L85.2878 25.0134ZM80.0856 32.2471C79.9403 33.9662 80.0931 36.3252 81.8245 37.8225L83.1328 36.3098C82.1769 35.4831 81.9432 34.0159 82.0785 32.4156L80.0856 32.2471ZM81.7887 37.79C84.0771 39.9714 87.4087 39.9778 89.9409 39.6707L89.7001 37.6852C87.2257 37.9853 84.7456 37.8456 83.1687 36.3424L81.7887 37.79ZM90.7686 38.9959C91.643 36.3882 92.3766 33.6345 92.5285 30.7865L90.5314 30.68C90.3934 33.2654 89.7235 35.8219 88.8724 38.36L90.7686 38.9959ZM92.5278 30.7989C92.6677 28.6737 91.7084 26.3547 89.7635 25.1619L88.7179 26.8668C89.9297 27.61 90.6315 29.1584 90.5321 30.6676L92.5278 30.7989ZM89.7705 25.1662C88.304 24.2502 86.5557 24.5208 85.2986 25.0092L86.0227 26.8735C87.0342 26.4806 88.0284 26.4362 88.7109 26.8625L89.7705 25.1662ZM75.5133 40.3402C74.3039 42.9897 72.7816 45.4153 71.3239 48.0784L73.0782 49.0387C74.4597 46.515 76.0849 43.9044 77.3327 41.1707L75.5133 40.3402ZM71.3241 48.0781C69.6915 51.0577 67.9385 54.1116 66.6159 57.3563L68.468 58.1113C69.7361 55.0002 71.4159 52.0727 73.078 49.0391L71.3241 48.0781ZM66.587 57.4371C66.5295 57.622 66.4601 57.8086 66.3764 58.0401C66.297 58.2597 66.2073 58.5132 66.1352 58.7782C65.9907 59.3097 65.8921 59.9732 66.1092 60.6851L68.0222 60.1018C67.9609 59.9005 67.9681 59.66 68.0652 59.3028C68.114 59.1234 68.179 58.9365 68.2572 58.7203C68.3311 58.516 68.4221 58.2714 68.4969 58.0305L66.587 57.4371ZM67.2027 61.384C72.2122 60.6913 76.8615 58.3249 80.5832 55.0079L79.2526 53.5149C75.7866 56.6039 71.4951 58.7714 66.9287 59.4029L67.2027 61.384ZM80.5777 55.0129C83.4656 52.4773 85.7148 49.3415 87.601 46.1109L85.8738 45.1025C84.0465 48.2323 81.9243 51.1691 79.2581 53.5099L80.5777 55.0129ZM86.7678 44.6072C83.8825 44.5195 81.0208 43.544 78.8394 41.715L77.5544 43.2477C80.1218 45.4002 83.4308 46.5067 86.7071 46.6063L86.7678 44.6072ZM78.8227 41.7013C78.5545 41.4862 78.3049 41.2339 78.0198 40.9362C77.7477 40.652 77.431 40.313 77.082 40.0053L75.7594 41.5056C76.0293 41.7435 76.2763 42.0072 76.5754 42.3195C76.8614 42.6182 77.1905 42.956 77.5711 43.2614L78.8227 41.7013ZM8.93393 71.7396C7.13482 72.1877 5.1176 73.0637 3.88347 74.8431L5.52691 75.9829C6.35429 74.79 7.80665 74.0815 9.4173 73.6804L8.93393 71.7396ZM3.90077 74.819C2.86505 76.2214 2.77569 78.0017 3.08757 79.4638L5.04357 79.0466C4.80326 77.92 4.93017 76.7917 5.50961 76.0071L3.90077 74.819ZM3.08637 79.4582C3.25802 80.2865 3.70988 81.4723 4.8603 82.0155L5.71428 80.207C5.43361 80.0745 5.17683 79.6897 5.04477 79.0523L3.08637 79.4582ZM4.94707 82.0516C5.96731 82.4208 7.0101 82.1128 7.73213 81.6636L6.67556 79.9654C6.2748 80.2148 5.8819 80.263 5.6275 80.1709L4.94707 82.0516ZM7.72775 81.6663C9.06635 80.8429 10.0849 79.663 10.9549 78.5839L9.39797 77.3286C8.53782 78.3955 7.70194 79.3341 6.67993 79.9627L7.72775 81.6663ZM10.9605 78.577C12.3596 76.8099 13.5508 74.9128 14.6819 73.0369L12.9691 72.0042C11.8454 73.8678 10.7083 75.6736 9.39245 77.3355L10.9605 78.577ZM14.0137 71.5384C12.2984 71.2097 10.5571 71.3687 8.95423 71.7325L9.397 73.6829C10.8312 73.3573 12.2787 73.2423 13.6373 73.5027L14.0137 71.5384ZM63.6131 10.7714C65.0314 10.3918 66.6629 10.7731 68.2062 11.4627L69.0221 9.63663C67.3259 8.87878 65.1749 8.28299 63.096 8.8394L63.6131 10.7714ZM68.1765 11.4488C69.9213 12.298 71.3741 13.5621 71.6045 15.1811L73.5845 14.8994C73.2075 12.2492 70.9468 10.5728 69.0518 9.65049L68.1765 11.4488ZM71.6069 15.197C71.8857 16.9537 70.7529 18.6738 69.2611 20.1901L70.6868 21.5928C72.2136 20.0408 74.0258 17.679 73.5821 14.8835L71.6069 15.197ZM69.2905 20.1614C68.7854 20.6342 67.6691 21.4227 66.4184 22.1075C65.8012 22.4454 65.175 22.7449 64.6006 22.9619C64.0127 23.184 63.539 23.2966 63.2088 23.3098L63.2886 25.3082C63.9305 25.2826 64.6362 25.0865 65.3075 24.8328C65.9923 24.5741 66.7051 24.2307 67.3789 23.8618C68.7103 23.1328 69.9844 22.2513 70.6573 21.6215L69.2905 20.1614ZM63.2114 23.3097C62.8356 23.3238 62.5121 23.3131 62.2525 23.2488C62.0089 23.1884 61.8965 23.1006 61.8312 23.0041L60.1751 24.1255C60.5999 24.7527 61.2133 25.0518 61.7716 25.1901C62.3138 25.3244 62.8681 25.324 63.2861 25.3083L63.2114 23.3097ZM61.8383 23.0147C61.0885 21.8763 61.0183 20.3595 61.2349 18.7585L59.2529 18.4904C59.0186 20.2226 59.0082 22.3539 60.168 24.1148L61.8383 23.0147ZM61.2357 18.7524C61.5477 16.3326 61.8961 14.0155 62.8652 11.9546L61.0553 11.1035C59.9353 13.4852 59.5613 16.0993 59.2521 18.4966L61.2357 18.7524ZM62.8649 11.9553C63.1697 11.3085 63.4632 10.8869 63.8322 10.6862L62.8769 8.92914C61.9022 9.45905 61.3813 10.4117 61.0557 11.1028L62.8649 11.9553Z" fill="#F3CF00" mask="url(#path-3-inside-1_814_212)"/>
</svg>
