<svg width="97" height="90" viewBox="0 0 97 90" fill="none" xmlns="http://www.w3.org/2000/svg">
<g clip-path="url(#clip0_1087_1250)">
<path d="M40.7365 4.51759C40.9575 3.95034 41.6165 4.0275 42.1129 4.00039C44.3569 3.97328 46.3235 5.36846 47.8646 6.87418C48.4569 7.45811 49.1868 8.33401 48.7176 9.20366C46.7281 12.5071 44.995 15.9544 43.2745 19.4017C39.3455 27.3473 35.5707 35.366 31.6042 43.2908C28.843 48.8069 26.0964 54.3314 23.0808 59.7119C27.5979 60.7463 32.1443 61.6451 36.699 62.4835C41.1661 63.2781 45.6811 63.7994 50.215 63.9955C52.217 64.1018 54.2316 64.0351 56.2191 63.764C57.9479 63.5116 59.7102 63.0633 61.1554 62.0393C61.804 61.593 62.3233 60.9444 62.5506 60.1853C62.8655 59.2197 62.7341 58.1812 62.5548 57.2031C59.9959 57.8454 57.0908 58.1436 54.6612 56.9007C52.6008 55.8371 51.6998 53.4763 51.3828 51.3053C49.9918 52.3522 48.9866 53.7954 47.9105 55.1426C47.0325 56.2521 46.019 57.2469 45.0013 58.2229C43.9418 59.1843 42.8532 60.2416 41.4247 60.594C39.5102 60.9507 37.4289 60.7943 35.7125 59.8203C34.2757 58.9778 33.5499 57.3365 33.283 55.7516C33.114 54.8798 33.4519 54.031 33.6959 53.2115C34.6802 50.3272 35.9128 47.5369 37.1307 44.7465C39.0118 40.4462 41.0701 36.2252 43.1306 32.0105C44.7468 28.7592 46.2964 25.4662 48.1441 22.3359C48.3693 22.0064 48.557 21.485 49.0492 21.5414C51.1534 21.2473 53.1492 22.2942 54.6987 23.6227C55.3327 24.2129 56.0335 24.7843 56.438 25.5705C56.7342 26.1461 56.5548 26.8301 56.2858 27.3807C54.144 30.9573 52.4381 34.78 50.6383 38.538C48.1816 43.9352 45.6519 49.3033 43.3725 54.7797C45.9397 52.0248 48.2984 49.0759 50.9762 46.4211C51.1222 46.2522 51.3224 46.1104 51.3974 45.8914C52.5528 41.6746 54.4798 37.6663 56.9907 34.0876C57.975 32.7758 58.9886 31.3118 60.5756 30.6945C61.6142 30.3963 62.7696 30.4359 63.7643 30.878C63.1616 27.8374 63.7685 24.5465 65.5599 21.996C66.9676 19.9564 69.1365 18.288 71.6579 18.0148C74.0729 17.7103 76.6943 17.8709 78.8006 19.2077C80.9341 20.532 82.1854 22.9365 82.5941 25.3599C82.9653 27.5017 82.9632 29.706 82.6108 31.8499C83.8079 31.3515 84.6587 30.3254 85.6118 29.4849C86.4794 28.6966 87.349 27.5705 88.6524 27.6664C89.2739 27.6539 89.641 28.2921 89.5763 28.8572C89.4887 30.3254 88.8255 31.6789 88.1248 32.9468C87.3782 34.2169 86.5398 35.4661 85.4283 36.4463C83.8162 37.683 81.9455 38.5672 79.9914 39.1074C78.1854 42.5734 75.9602 45.8163 73.4118 48.7756C70.8007 51.76 67.8769 54.5962 64.3316 56.4481C65.8915 58.5774 67.1261 61.0007 67.514 63.6347C67.7664 65.5116 67.4389 67.5408 66.2314 69.0507C65.1699 70.5835 63.341 71.3155 61.5787 71.6992C57.4516 72.573 53.1868 72.181 49.0554 71.5345C40.6927 70.1831 32.624 67.5262 24.574 64.959C23.1705 64.5565 21.7836 63.9871 20.3155 63.8974C18.6283 66.7984 16.5387 69.4636 14.2446 71.9078C12.5012 73.7013 10.3406 75.4427 7.72959 75.5553C5.93191 75.6262 3.95487 75.4239 2.49921 74.2623C0.676497 72.7023 0.0133148 70.2039 0.00497284 67.8828C-0.059677 65.9183 0.503402 63.8745 1.84854 62.4042C3.54403 60.5065 6.04244 59.5346 8.51581 59.1801C10.4407 59.0153 12.374 59.0633 14.3009 59.055C18.4302 50.6922 22.33 42.2168 26.3821 33.8186C29.112 28.1106 31.8398 22.4006 34.5718 16.6926C36.5759 12.6113 38.457 8.45497 40.7386 4.51759H40.7365ZM73.7767 22.7906C71.5494 23.6852 70.0833 25.9751 69.8226 28.3108C69.6996 29.7456 69.8664 31.4015 71.0281 32.4046C72.6985 33.9979 75.2074 34.0626 77.3721 33.7977C78.1187 31.5767 78.7235 29.2806 78.8507 26.9323C78.9529 25.364 78.2376 23.6894 76.8736 22.8531C75.9414 22.2713 74.7569 22.4089 73.7767 22.7906ZM65.7935 35.5912C64.732 37.9186 63.3702 40.0938 62.1439 42.3378C60.7195 44.9363 59.2388 47.5181 58.121 50.2688C57.8916 51.0029 57.4683 51.7766 57.7102 52.5629C61.8478 51.9935 65.7122 50.0332 68.8133 47.2657C71.2137 45.1573 73.1052 42.5359 74.7068 39.7872C72.0479 39.7059 69.3764 38.805 67.3284 37.0844C66.7674 36.6361 66.3274 36.0646 65.7956 35.5912H65.7935ZM7.68371 63.2092C6.21136 63.5784 4.70981 64.2645 3.8214 65.5471C3.12485 66.4897 3.02892 67.7493 3.26875 68.8651C3.40013 69.499 3.70461 70.1789 4.324 70.4688C4.87665 70.669 5.49187 70.5147 5.97987 70.2144C7.00176 69.5887 7.80258 68.6711 8.5471 67.7452C9.71913 66.2645 10.7285 64.6649 11.7024 63.0487C10.374 62.7921 8.99547 62.9089 7.68371 63.2092Z" fill="white"/>
<path d="M55.4331 8.73481C56.945 8.32815 58.578 8.7515 59.9794 9.37714C61.554 10.1425 63.1556 11.4126 63.4205 13.2561C63.7291 15.2248 62.4632 16.9871 61.1536 18.3134C60.1338 19.2686 57.0222 21.2018 55.3413 21.2685C54.6573 21.2936 53.8252 21.2498 53.4018 20.6241C52.576 19.3728 52.553 17.7941 52.747 16.3552C53.016 14.2718 53.3267 12.1446 54.2277 10.2218C54.503 9.64617 54.8533 9.05181 55.431 8.73481H55.4331Z" fill="white"/>
<path d="M8.30551 55.2383C9.35242 55.1487 10.3931 55.1174 11.3628 55.1049C10.5557 51.8661 10.1261 48.4793 10.1261 44.9945C10.1261 27.8476 20.4889 13.0783 35.2791 6.6133C35.9611 5.28276 36.668 3.9564 37.4209 2.6488C37.4689 2.55078 37.5252 2.45068 37.5856 2.34641C31.0998 4.5299 25.1583 8.19826 20.1781 13.1784C11.6798 21.6767 7 32.9758 7 44.9945C7 48.4918 7.39833 51.9266 8.16995 55.2508L8.19915 55.2467L8.30759 55.2383H8.30551Z" fill="white"/>
<path d="M51.992 3.12825C67.3224 3.12825 80.7508 11.4118 88.0458 23.7349C88.2314 23.7182 88.4212 23.7078 88.6152 23.7078C88.7132 23.7078 88.8112 23.7098 88.9071 23.714C90.2022 23.7474 91.4347 24.3209 92.3044 25.2969C92.467 25.4783 92.613 25.6723 92.7444 25.8725C90.5567 21.2156 87.5516 16.9237 83.806 13.1761C75.3098 4.67985 64.0107 3.05176e-05 51.992 3.05176e-05C49.6959 3.05176e-05 47.4248 0.173125 45.1955 0.508888C46.7471 1.00523 48.2778 1.89782 49.7731 3.18873C50.5072 3.15119 51.2475 3.13034 51.992 3.13034V3.12825Z" fill="white"/>
<path d="M93.5475 29.0798C93.4349 30.7336 92.9073 32.1872 92.2587 33.5157C93.3014 37.1652 93.8582 41.015 93.8582 44.9941C93.8582 68.0804 75.0764 86.8601 51.9922 86.8601C39.0018 86.8601 27.3752 80.9124 19.6882 71.5986C19.0292 72.4078 18.3305 73.2107 17.5985 74.0073C18.4139 74.9708 19.2711 75.9072 20.1741 76.8102C28.6724 85.3085 39.9715 89.9884 51.9902 89.9884C64.0088 89.9884 75.3079 85.3085 83.8062 76.8102C92.3046 68.3119 96.9844 57.0128 96.9844 44.9941C96.9844 38.8211 95.7477 32.84 93.3932 27.328C93.5433 27.8932 93.5975 28.4855 93.5433 29.0798H93.5475Z" fill="white"/>
<path d="M51.9922 82.0074C72.4007 82.0074 89.0053 65.4028 89.0053 44.9943C89.0053 42.913 88.8301 40.8713 88.4985 38.8838C88.3692 39.0089 88.2399 39.1341 88.1023 39.255L88.0042 39.3426L87.9 39.4219C87.1847 39.9703 86.4255 40.4646 85.631 40.9088C85.7936 42.2498 85.8771 43.6116 85.8771 44.9943C85.8771 63.6781 70.676 78.8791 51.9922 78.8791C43.4814 78.8791 35.6942 75.7238 29.736 70.5226C28.1009 70.0117 26.4784 69.4945 24.8685 68.9794L23.5734 68.5664C23.5296 68.5539 23.4879 68.5414 23.4462 68.5289C30.2406 76.7561 40.5158 82.0074 51.9922 82.0074Z" fill="white"/>
<path d="M66.3506 11.981C66.4069 12.8548 66.3819 13.6181 66.3047 14.2855C66.9616 14.5941 67.6102 14.9215 68.2442 15.2677C69.2473 14.6713 70.3214 14.1958 71.3245 14.0852C71.6164 14.0477 71.9084 14.0206 72.1962 13.9977C70.3297 12.7777 68.3485 11.7203 66.2693 10.8486C66.3047 11.1948 66.3235 11.5702 66.3506 11.9831V11.981Z" fill="white"/>
<path d="M14.9811 44.9943C14.9811 46.2039 15.0416 47.4009 15.1563 48.5813C16.1803 46.4354 17.1938 44.2936 18.1928 42.1852C18.2074 42.156 18.222 42.1247 18.2366 42.0955C18.9519 33.6889 22.7495 26.1478 28.493 20.6109C29.398 18.7173 30.3031 16.8257 31.2082 14.9321L31.2249 14.8988C31.3501 14.6422 31.4752 14.3836 31.6003 14.125C21.5942 20.7569 14.9832 32.1186 14.9832 44.9943H14.9811Z" fill="white"/>
</g>
<defs>
<clipPath id="clip0_1087_1250">
<rect width="97" height="90" fill="white"/>
</clipPath>
</defs>
</svg>
