<svg width="90" height="111" viewBox="0 0 90 111" fill="none" xmlns="http://www.w3.org/2000/svg">
<g clip-path="url(#clip0_540_261)">
<path d="M40.7365 0.517588C40.9575 -0.0496629 41.6165 0.0275 42.1129 0.00038873C44.3569 -0.0267225 46.3235 1.36846 47.8646 2.87418C48.4569 3.45811 49.1868 4.33401 48.7176 5.20366C46.7281 8.50706 44.995 11.9544 43.2745 15.4017C39.3455 23.3473 35.5707 31.366 31.6042 39.2908C28.843 44.8069 26.0964 50.3314 23.0808 55.7119C27.5979 56.7463 32.1443 57.6451 36.699 58.4835C41.1661 59.2781 45.6811 59.7994 50.215 59.9955C52.217 60.1018 54.2316 60.0351 56.2191 59.764C57.9479 59.5116 59.7102 59.0633 61.1554 58.0393C61.804 57.593 62.3233 56.9444 62.5506 56.1853C62.8655 55.2197 62.7341 54.1811 62.5548 53.2031C59.9959 53.8454 57.0908 54.1436 54.6612 52.9007C52.6008 51.8371 51.6998 49.4763 51.3828 47.3053C49.9918 48.3522 48.9866 49.7954 47.9105 51.1426C47.0325 52.2521 46.019 53.2468 45.0013 54.2229C43.9418 55.1843 42.8532 56.2416 41.4247 56.594C39.5102 56.9507 37.4289 56.7943 35.7125 55.8203C34.2757 54.9778 33.5499 53.3365 33.283 51.7516C33.114 50.8798 33.4519 50.031 33.6959 49.2115C34.6802 46.3272 35.9128 43.5369 37.1307 40.7465C39.0118 36.4462 41.0701 32.2252 43.1306 28.0105C44.7468 24.7592 46.2964 21.4662 48.1441 18.3359C48.3693 18.0064 48.557 17.485 49.0492 17.5414C51.1534 17.2473 53.1492 18.2942 54.6987 19.6227C55.3327 20.2129 56.0335 20.7843 56.438 21.5705C56.7342 22.1461 56.5548 22.8301 56.2858 23.3807C54.144 26.9573 52.4381 30.78 50.6383 34.538C48.1816 39.9352 45.6519 45.3033 43.3725 50.7797C45.9397 48.0248 48.2984 45.0759 50.9762 42.4211C51.1222 42.2522 51.3224 42.1104 51.3974 41.8914C52.5528 37.6746 54.4798 33.6663 56.9907 30.0876C57.975 28.7758 58.9886 27.3118 60.5756 26.6945C61.6142 26.3963 62.7696 26.4359 63.7643 26.878C63.1616 23.8374 63.7685 20.5465 65.5599 17.996C66.9676 15.9564 69.1365 14.288 71.6579 14.0148C74.0729 13.7103 76.6943 13.8709 78.8006 15.2077C80.9341 16.532 82.1854 18.9365 82.5941 21.3599C82.9653 23.5017 82.9632 25.706 82.6108 27.8499C83.8079 27.3515 84.6587 26.3254 85.6118 25.4849C86.4794 24.6966 87.349 23.5705 88.6524 23.6664C89.2739 23.6539 89.641 24.2921 89.5763 24.8572C89.4887 26.3254 88.8255 27.6789 88.1248 28.9468C87.3782 30.2169 86.5398 31.4661 85.4283 32.4463C83.8162 33.683 81.9455 34.5672 79.9914 35.1074C78.1854 38.5734 75.9602 41.8163 73.4118 44.7756C70.8007 47.76 67.8769 50.5962 64.3316 52.4481C65.8915 54.5774 67.1261 57.0007 67.514 59.6347C67.7664 61.5116 67.4389 63.5408 66.2314 65.0507C65.1699 66.5835 63.341 67.3155 61.5787 67.6992C57.4516 68.573 53.1868 68.181 49.0554 67.5345C40.6927 66.1831 32.624 63.5262 24.574 60.959C23.1705 60.5565 21.7836 59.9871 20.3155 59.8974C18.6283 62.7984 16.5387 65.4636 14.2446 67.9078C12.5012 69.7013 10.3406 71.4427 7.72959 71.5553C5.9319 71.6262 3.95487 71.4239 2.49921 70.2623C0.676497 68.7023 0.0133148 66.2039 0.00497284 63.8828C-0.059677 61.9183 0.503402 59.8745 1.84854 58.4042C3.54403 56.5065 6.04244 55.5346 8.51581 55.1801C10.4407 55.0153 12.374 55.0633 14.3009 55.055C18.4302 46.6922 22.33 38.2168 26.3821 29.8186C29.112 24.1106 31.8398 18.4006 34.5718 12.6926C36.5759 8.61133 38.457 4.45497 40.7386 0.517588H40.7365ZM73.7767 18.7906C71.5494 19.6852 70.0833 21.9751 69.8226 24.3108C69.6996 25.7456 69.8664 27.4015 71.0281 28.4046C72.6985 29.9979 75.2074 30.0626 77.3721 29.7977C78.1187 27.5767 78.7235 25.2806 78.8507 22.9323C78.9529 21.364 78.2376 19.6894 76.8736 18.8531C75.9414 18.2713 74.7569 18.4089 73.7767 18.7906ZM65.7935 31.5912C64.732 33.9186 63.3702 36.0938 62.1439 38.3378C60.7195 40.9363 59.2388 43.5181 58.121 46.2688C57.8916 47.0029 57.4683 47.7766 57.7102 48.5629C61.8478 47.9935 65.7122 46.0332 68.8133 43.2657C71.2137 41.1573 73.1052 38.5359 74.7068 35.7872C72.0479 35.7059 69.3764 34.805 67.3284 33.0844C66.7674 32.6361 66.3274 32.0646 65.7956 31.5912H65.7935ZM7.68371 59.2092C6.21136 59.5784 4.70981 60.2645 3.8214 61.5471C3.12485 62.4897 3.02892 63.7493 3.26875 64.8651C3.40013 65.499 3.70461 66.1789 4.324 66.4688C4.87665 66.669 5.49187 66.5147 5.97987 66.2144C7.00176 65.5887 7.80258 64.6711 8.5471 63.7452C9.71913 62.2645 10.7285 60.6649 11.7024 59.0487C10.374 58.7921 8.99547 58.9089 7.68371 59.2092Z" fill="white"/>
<path d="M55.4331 4.73481C56.945 4.32815 58.578 4.7515 59.9794 5.37714C61.554 6.14251 63.1556 7.41257 63.4205 9.25613C63.7291 11.2248 62.4632 12.9871 61.1536 14.3134C60.1338 15.2686 57.0222 17.2018 55.3413 17.2685C54.6573 17.2936 53.8252 17.2498 53.4018 16.6241C52.576 15.3728 52.553 13.7941 52.747 12.3552C53.016 10.2718 53.3267 8.14457 54.2277 6.22176C54.503 5.64617 54.8533 5.05181 55.431 4.73481H55.4331Z" fill="white"/>
<path d="M1.30551 128.892C2.35242 128.802 3.39307 128.771 4.36282 128.758C3.55574 125.519 3.12613 122.133 3.12613 118.648C3.12613 101.501 13.4889 86.7316 28.2791 80.2666C28.9611 78.936 29.668 77.6097 30.4209 76.3021C30.4689 76.2041 30.5252 76.104 30.5856 75.9997C24.0998 78.1832 18.1583 81.8516 13.1781 86.8317C4.67982 95.33 0 106.629 0 118.648C0 122.145 0.398326 125.58 1.16995 128.904L1.19915 128.9L1.30759 128.892H1.30551Z" fill="white"/>
<path d="M44.992 76.7815C60.3224 76.7815 73.7508 85.0651 81.0458 97.3882C81.2314 97.3715 81.4212 97.3611 81.6152 97.3611C81.7132 97.3611 81.8112 97.3631 81.9071 97.3673C83.2022 97.4007 84.4347 97.9742 85.3044 98.9502C85.467 99.1316 85.613 99.3256 85.7444 99.5258C83.5567 94.8689 80.5516 90.577 76.806 86.8294C68.3098 78.3331 57.0107 73.6533 44.992 73.6533C42.6959 73.6533 40.4249 73.8264 38.1955 74.1622C39.7471 74.6585 41.2778 75.5511 42.7731 76.842C43.5072 76.8045 44.2475 76.7836 44.992 76.7836V76.7815Z" fill="white"/>
<path d="M86.5475 102.733C86.4349 104.387 85.9073 105.84 85.2587 107.169C86.3014 110.819 86.8582 114.668 86.8582 118.647C86.8582 141.734 68.0764 160.513 44.9922 160.513C32.0018 160.513 20.3752 154.566 12.6882 145.252C12.0292 146.061 11.3305 146.864 10.5985 147.661C11.4139 148.624 12.2711 149.56 13.1741 150.464C21.6724 158.962 32.9715 163.642 44.9902 163.642C57.0088 163.642 68.3079 158.962 76.8062 150.464C85.3046 141.965 89.9844 130.666 89.9844 118.647C89.9844 112.474 88.7477 106.493 86.3932 100.981C86.5433 101.546 86.5975 102.139 86.5433 102.733H86.5475Z" fill="white"/>
<path d="M44.9922 155.661C65.4007 155.661 82.0053 139.056 82.0053 118.648C82.0053 116.566 81.8301 114.525 81.4985 112.537C81.3692 112.662 81.2399 112.787 81.1023 112.908L81.0042 112.996L80.9 113.075C80.1847 113.624 79.4255 114.118 78.631 114.562C78.7936 115.903 78.8771 117.265 78.8771 118.648C78.8771 137.331 63.676 152.532 44.9922 152.532C36.4814 152.532 28.6942 149.377 22.736 144.176C21.1009 143.665 19.4784 143.148 17.8685 142.633L16.5734 142.22C16.5296 142.207 16.4879 142.195 16.4462 142.182C23.2406 150.409 33.5158 155.661 44.9922 155.661Z" fill="white"/>
<path d="M59.3506 85.6343C59.4069 86.5081 59.3819 87.2714 59.3047 87.9387C59.9616 88.2474 60.6102 88.5748 61.2442 88.921C62.2473 88.3246 63.3214 87.8491 64.3245 87.7385C64.6164 87.701 64.9084 87.6739 65.1962 87.6509C63.3297 86.4309 61.3485 85.3736 59.2693 84.5019C59.3047 84.8481 59.3235 85.2235 59.3506 85.6364V85.6343Z" fill="white"/>
<path d="M7.98113 118.648C7.98113 119.857 8.04161 121.054 8.15631 122.235C9.18028 120.089 10.1938 117.947 11.1928 115.838C11.2074 115.809 11.222 115.778 11.2366 115.749C11.9519 107.342 15.7495 99.8011 21.493 94.2642C22.398 92.3706 23.3031 90.479 24.2082 88.5854L24.2249 88.552C24.3501 88.2955 24.4752 88.0369 24.6003 87.7783C14.5942 94.4102 7.98321 105.772 7.98321 118.648H7.98113Z" fill="white"/>
</g>
<defs>
<clipPath id="clip0_540_261">
<rect width="89.9844" height="163.642" fill="white"/>
</clipPath>
</defs>
</svg>
