<svg width="143" height="107" viewBox="0 0 143 107" fill="none" xmlns="http://www.w3.org/2000/svg">
<g clip-path="url(#clip0_814_216)">
<path d="M50.1714 4.63941C61.5464 -0.440888 74.7172 -1.37477 86.7226 1.96229C93.4688 3.82009 99.8357 7.0127 105.351 11.2886C111.618 16.1124 116.764 22.3358 120.363 29.3436C118.364 29.3486 116.364 29.3436 114.365 29.3436C110.967 23.5585 106.378 18.4583 100.916 14.5186C94.4558 9.80936 86.7955 6.74126 78.8538 5.67788C73.2856 4.93825 67.5918 5.12004 62.094 6.26809C51.7161 8.40231 42.1419 14.0678 35.2576 22.0494C33.281 24.3056 31.5505 26.7686 30.0184 29.3386C28.0292 29.3511 26.0375 29.3436 24.0484 29.3436C29.5462 18.4583 38.9597 9.59021 50.1739 4.63941H50.1714Z" fill="#2DABE2"/>
<path d="M60.4487 12.0355C64.2537 10.9373 68.2145 10.489 72.1652 10.3894C76.1788 10.484 80.1973 10.9547 84.0601 12.0679C93.7875 14.7923 102.483 21.0107 108.119 29.3359C105.924 29.3534 103.726 29.3359 101.531 29.3434C96.6608 23.5509 90.0402 19.2077 82.7139 17.1507C73.4436 14.4785 63.1537 15.4871 54.6067 19.9473C50.1813 22.2235 46.218 25.3813 43.0107 29.1641C42.963 29.2039 42.8675 29.2861 42.8198 29.3284C40.6272 29.3608 38.432 29.3334 36.2394 29.3409C41.9382 21.0032 50.6434 14.7176 60.4462 12.0305L60.4487 12.0355Z" fill="#2DABE2"/>
<path d="M24.0483 77.6463C26.0425 77.6513 28.0367 77.6463 30.0309 77.6463C33.1177 82.9358 37.2166 87.6475 42.0665 91.4204C47.6648 95.8133 54.2552 98.9561 61.2148 100.535C70.2892 102.607 79.9664 102.054 88.7293 98.9138C99.4463 95.1111 108.684 87.4234 114.363 77.6438C116.359 77.6563 118.361 77.6388 120.36 77.6538C117.068 84.0664 112.479 89.829 106.916 94.4561C101.395 99.0632 94.938 102.567 88.0361 104.654C79.4163 107.279 70.131 107.702 61.3002 105.909C53.8308 104.398 46.6953 101.28 40.5344 96.8319C33.6124 91.8512 27.8709 85.2344 24.0458 77.6463H24.0483Z" fill="#2DABE2"/>
<path d="M36.2445 77.6463C38.4572 77.6912 40.6875 77.5766 42.8877 77.7011C47.2352 82.8487 52.9592 86.8531 59.3411 89.1069C67.9785 92.1974 77.7486 92.038 86.2704 88.6412C92.1902 86.3277 97.4595 82.4726 101.541 77.6438C103.739 77.6563 105.941 77.6488 108.141 77.6488C104.213 83.4189 98.8384 88.1954 92.6549 91.4876C86.0946 94.9741 78.6126 96.7423 71.1707 96.5555C64.8842 96.416 58.6203 94.9044 52.9868 92.1252C46.2658 88.8479 40.4389 83.7975 36.242 77.6488L36.2445 77.6463Z" fill="#2DABE2"/>
<path d="M62.0939 6.26798C67.5918 5.11994 73.2856 4.93814 78.8538 5.67777C86.7954 6.74115 94.4558 9.80925 100.916 14.5185C106.378 18.4582 110.967 23.5609 114.365 29.3435C112.283 29.3385 110.201 29.3535 108.119 29.336C102.483 21.0108 93.7877 14.7924 84.0603 12.068C80.1975 10.9548 76.1789 10.4841 72.1654 10.3895C68.2147 10.4891 64.2539 10.9374 60.4488 12.0356C50.6461 14.7227 41.9409 21.0058 36.2421 29.346C34.1675 29.341 32.093 29.3534 30.0184 29.341C31.5505 26.771 33.281 24.308 35.2576 22.0518C42.1419 14.0702 51.7186 8.4047 62.0939 6.27047V6.26798Z" fill="white"/>
<path d="M30.0309 77.6488C32.1005 77.6438 34.1725 77.6538 36.2446 77.6438C40.4415 83.7925 46.2684 88.8429 52.9894 92.1202C58.6229 94.8994 64.8868 96.411 71.1733 96.5505C78.6152 96.7372 86.0972 94.9691 92.6575 91.4826C98.8435 88.1929 104.216 83.4164 108.144 77.6438C110.216 77.6438 112.291 77.6488 114.363 77.6438C108.684 87.4234 99.4463 95.1111 88.7293 98.9138C79.9664 102.054 70.2917 102.607 61.2148 100.535C54.2552 98.9537 47.6648 95.8108 42.0665 91.4204C37.2166 87.6475 33.1152 82.9383 30.0309 77.6463V77.6488Z" fill="white"/>
<path d="M61.3855 33.694C63.7866 31.2684 68.3602 31.4502 70.4247 34.2145C69.7164 35.1733 68.9931 36.1221 68.2848 37.0834C67.6921 36.3512 66.8457 35.7261 65.8486 35.7909C64.5953 35.7834 63.6761 36.8543 63.2742 37.9351C62.6262 39.7157 62.6111 41.688 63.013 43.5234C63.3094 44.7885 64.0679 46.208 65.4769 46.4595C66.5795 46.6836 67.6117 46.0312 68.2321 45.172C68.9831 46.0835 69.7265 46.9999 70.4624 47.9238C69.508 49.1814 68.0764 50.1402 66.4614 50.2398C64.4069 50.5462 62.2495 49.7119 60.946 48.1056C59.223 45.9863 58.6805 43.1473 58.7985 40.4827C58.904 38.0397 59.5897 35.4572 61.388 33.694H61.3855Z" fill="black"/>
<path d="M101.018 32.2023C102.817 31.7865 104.841 32.0454 106.315 33.2035C108.094 34.5682 108.925 36.7895 109.226 38.9337C109.513 41.3519 109.402 43.887 108.455 46.1632C107.83 47.6923 106.707 49.0794 105.165 49.7692C103.088 50.6807 100.458 50.4092 98.7429 48.8826C97.0727 47.4457 96.3218 45.2492 96.0405 43.1324C95.7617 40.6496 95.9074 38.0322 96.9622 35.7312C97.7232 34.0576 99.18 32.6357 101.016 32.1998L101.018 32.2023ZM102.199 35.903C101.167 36.1819 100.637 37.2303 100.365 38.1742C99.9234 39.8128 99.9209 41.5486 100.177 43.2171C100.35 44.1809 100.654 45.1969 101.388 45.8942C102.036 46.5343 103.186 46.5866 103.841 45.9266C104.836 44.9878 105.09 43.5583 105.23 42.2608C105.328 40.4977 105.298 38.615 104.424 37.0236C104.007 36.2541 103.108 35.6266 102.199 35.9055V35.903Z" fill="black"/>
<path d="M114.006 32.3692C116.209 31.6146 118.909 32.0504 120.549 33.7613C119.853 34.7325 119.155 35.7037 118.469 36.68C117.743 35.8581 116.523 35.2978 115.445 35.7411C114.28 36.1894 114.159 37.9874 115.154 38.6722C116.289 39.5463 117.741 39.9423 118.778 40.9509C119.74 41.82 120.355 43.0776 120.34 44.3801C120.428 45.9316 119.989 47.5702 118.876 48.7008C117.628 50.0157 115.671 50.4789 113.91 50.2274C112.404 50.0556 111 49.3334 109.884 48.3323C110.557 47.3287 111.248 46.335 111.944 45.3463C112.825 46.1682 114.051 46.8654 115.297 46.5666C116.545 46.2254 116.824 44.4274 115.887 43.6156C114.661 42.5547 112.938 42.206 111.848 40.9683C110.665 39.7007 110.465 37.833 110.763 36.1943C111.045 34.4611 112.326 32.9345 114.006 32.3692Z" fill="black"/>
<path d="M12.5075 32.4737C14.3309 32.4688 16.1543 32.4688 17.9777 32.4737C19.5198 32.4862 21.1549 32.9868 22.1595 34.207C23.3073 35.5593 23.4731 37.4519 23.242 39.1404C23.0034 40.9085 21.8104 42.5721 20.0824 43.1698C18.9296 43.6305 17.6738 43.5035 16.4632 43.5035C16.4306 45.6053 16.4632 47.7097 16.4481 49.8115C15.1371 49.8115 13.821 49.8115 12.51 49.8115C12.51 44.0314 12.51 38.2538 12.51 32.4737H12.5075ZM16.4507 35.8432C16.4507 37.3224 16.4507 38.8017 16.4507 40.281C17.1866 40.2486 18.0179 40.4428 18.6659 39.9946C19.7358 39.2475 19.8514 37.5914 19.1983 36.543C18.573 35.6589 17.395 35.8407 16.4532 35.8407L16.4507 35.8432Z" fill="black"/>
<path d="M24.7237 32.4737C26.6124 32.4663 28.5037 32.4687 30.3924 32.4687C31.8968 32.4737 33.5193 32.8647 34.5466 34.0277C35.6717 35.3003 35.84 37.1307 35.6316 38.7444C35.4608 40.1614 34.6294 41.5286 33.2832 42.1188C34.2552 44.6839 35.2598 47.2365 36.2318 49.8015C34.8279 49.814 33.4239 49.8065 32.0224 49.8065C31.2438 47.5079 30.4627 45.2093 29.6741 42.9132C29.3049 42.9182 28.9382 42.9207 28.569 42.9257C28.5639 45.2193 28.569 47.5154 28.569 49.809C27.2881 49.809 26.0071 49.809 24.7262 49.809C24.7212 44.0289 24.7262 38.2538 24.7262 32.4737H24.7237ZM28.569 35.7933C28.569 37.2402 28.5639 38.6896 28.569 40.1365C29.5887 40.1788 30.8671 40.1988 31.4799 39.225C31.9395 38.336 31.937 37.0908 31.2413 36.3163C30.5355 35.624 29.4656 35.8133 28.569 35.7933Z" fill="black"/>
<path d="M38.221 32.4737C39.5521 32.4687 40.8807 32.4737 42.2119 32.4737C42.2119 38.2538 42.2119 44.0339 42.2119 49.8139C40.8833 49.8139 39.5546 49.8139 38.226 49.8139C38.221 44.0339 38.226 38.2563 38.226 32.4762L38.221 32.4737Z" fill="black"/>
<path d="M45.118 32.4737C46.5872 32.4688 48.0565 32.4688 49.5233 32.4737C50.8595 36.02 52.173 39.5762 53.5393 43.1125C53.5795 39.5637 53.4791 36.02 53.4891 32.4737C54.6394 32.4688 55.7897 32.4688 56.94 32.4737C56.935 38.2538 56.94 44.0314 56.94 49.8115C55.5185 49.8165 54.0994 49.8065 52.6779 49.8165C51.3116 46.3076 49.9955 42.7788 48.6141 39.2774C48.6317 42.7912 48.6819 46.3026 48.7095 49.8165C47.5115 49.8165 46.3135 49.8165 45.118 49.8165C45.1129 44.0364 45.118 38.2588 45.118 32.4787V32.4737Z" fill="black"/>
<path d="M72.11 32.4737C73.4412 32.4687 74.7698 32.4737 76.101 32.4737C76.101 38.2538 76.101 44.0339 76.101 49.8139C74.7723 49.8139 73.4437 49.8139 72.1151 49.8139C72.11 44.0339 72.1151 38.2563 72.1151 32.4762L72.11 32.4737Z" fill="black"/>
<path d="M78.1604 32.4862C79.9688 32.4514 81.7796 32.4813 83.5905 32.4688C85.1728 32.4813 86.8857 32.9793 87.8903 34.2693C89.0155 35.6739 89.1737 37.5964 88.8899 39.3123C88.6262 40.931 87.5513 42.4252 86.0066 43.0677C84.7935 43.6529 83.4172 43.4935 82.1137 43.5135C82.1086 45.6128 82.1187 47.7147 82.1086 49.814C80.7951 49.809 79.4815 49.814 78.1705 49.809C78.1654 44.0364 78.183 38.2638 78.1604 32.4887V32.4862ZM82.1137 35.8407C82.1061 37.3225 82.1086 38.8017 82.1137 40.2835C82.8797 40.2461 83.7638 40.4528 84.4193 39.9448C85.4089 39.1877 85.4767 37.6637 84.9367 36.6252C84.3289 35.6764 83.0856 35.8258 82.1162 35.8407H82.1137Z" fill="black"/>
<path d="M90.5325 32.4737C91.8812 32.4688 93.2274 32.4688 94.5762 32.4737C94.5711 38.2538 94.5762 44.0314 94.5762 49.8115C93.2274 49.8115 91.8837 49.8115 90.5375 49.8115C90.5375 44.0314 90.5375 38.2538 90.5375 32.4762L90.5325 32.4737Z" fill="black"/>
<path d="M124.113 32.4738C124.934 32.4688 125.755 32.4738 126.576 32.4638C127.616 35.1434 128.573 37.8529 129.618 40.5275C130.64 37.843 131.68 35.1658 132.695 32.4813C133.508 32.4663 134.325 32.4713 135.141 32.4713C133.687 35.9453 132.187 39.4019 130.761 42.8859C130.683 45.1895 130.756 47.503 130.728 49.809H128.465C128.46 47.6748 128.46 45.5406 128.47 43.4039C128.465 43.1374 128.47 42.8685 128.355 42.6269C126.936 39.2425 125.522 35.8606 124.115 32.4713L124.113 32.4738Z" fill="black"/>
<path d="M69.6787 50.7603C73.1598 50.3519 76.8819 50.9994 79.7577 53.0664C82.2392 54.8121 83.8667 57.6187 84.3138 60.5847C84.7332 63.4337 84.4092 66.4594 83.0127 69.0195C81.8047 71.3206 79.7552 73.1485 77.3592 74.167C74.4859 75.3898 71.2183 75.5965 68.1818 74.9141C64.9795 74.1895 62.0334 72.1872 60.4335 69.3109C58.904 66.6985 58.5272 63.5507 58.9668 60.5947C59.4189 57.5639 61.1066 54.7025 63.6685 52.9593C65.4366 51.7266 67.5388 51.0094 69.6787 50.7578V50.7603ZM70.4975 55.863C68.9478 56.1071 67.4986 56.9339 66.5015 58.1342C64.3365 60.8885 64.4119 65.1396 66.6246 67.8466C68.453 70.0829 71.8462 70.698 74.4407 69.5101C76.1461 68.7356 77.4471 67.1841 77.9745 65.406C78.8184 62.7065 78.2784 59.4441 76.1285 57.4793C74.6466 56.0971 72.4867 55.5343 70.4975 55.8655V55.863Z" fill="black"/>
<path d="M129.178 52.2719C131.122 51.0218 133.508 50.6208 135.794 50.6955C138.418 50.8549 141.061 51.7888 143.002 53.5818C141.769 54.8444 140.556 56.1245 139.34 57.402C138.316 56.2091 136.796 55.4446 135.214 55.3749C134.179 55.3599 133.016 55.5567 132.328 56.4009C131.509 57.285 131.795 58.8763 132.908 59.3893C135.133 60.5448 137.743 60.8462 139.87 62.2183C141.299 63.1223 142.47 64.5692 142.716 66.2651C142.985 68.2051 142.673 70.3095 141.475 71.9083C140.3 73.5818 138.363 74.5729 136.387 74.9838C133.438 75.5989 130.286 75.1606 127.591 73.8333C126.604 73.3153 125.655 72.6852 124.924 71.836C126.207 70.6108 127.403 69.3034 128.684 68.0756C129.914 69.4951 131.725 70.4639 133.626 70.561C134.44 70.566 135.302 70.4539 136.002 70.0106C137.03 69.3681 137.338 67.8067 136.598 66.8454C135.859 65.9613 134.719 65.5878 133.659 65.2366C131.494 64.5169 129.098 63.9267 127.528 62.1611C126.29 60.7914 125.928 58.8639 126.144 57.0808C126.313 55.1159 127.518 53.3204 129.178 52.2669V52.2719Z" fill="black"/>
<path d="M-0.000354347 51.2758C2.14957 51.2708 4.29698 51.2708 6.44439 51.2758C8.30297 56.8094 10.0636 62.3753 11.9598 67.8964C13.7833 62.3554 15.5841 56.8044 17.4125 51.2659C19.5273 51.2758 21.6395 51.2609 23.7518 51.2708C20.7253 59.0706 17.6938 66.8728 14.6498 74.6676C12.7435 74.6576 10.8321 74.6676 8.92333 74.6626C5.94961 66.8629 2.96835 59.0681 -0.00537753 51.2708L-0.000354347 51.2758Z" fill="black"/>
<path d="M28.137 51.2783C29.9931 51.2659 31.8492 51.2833 33.7078 51.2684C36.9804 59.0656 40.2429 66.8654 43.508 74.6676C41.3807 74.6676 39.2533 74.6726 37.126 74.6676C36.5107 73.141 35.8953 71.6169 35.3001 70.0854C32.2787 70.0779 29.2572 70.0854 26.2358 70.0854C25.6506 71.6119 25.088 73.146 24.5028 74.6751C22.4207 74.6751 20.3385 74.6751 18.2564 74.6751C21.5366 66.8728 24.8569 59.088 28.137 51.2858V51.2783ZM30.832 57.6511C29.8223 60.2709 28.8629 62.9082 27.8733 65.5355C29.8198 65.5305 31.7663 65.5405 33.7103 65.5305C32.7533 62.9007 31.8015 60.2709 30.8295 57.6486L30.832 57.6511Z" fill="black"/>
<path d="M44.7261 51.2758C46.645 51.2758 48.5639 51.2758 50.4852 51.2758C50.4902 57.4145 50.4852 63.5507 50.4852 69.6894C53.5242 69.7019 56.5633 69.6745 59.6023 69.7019C59.5923 71.3579 59.6023 73.014 59.5973 74.6701C54.6369 74.6701 49.6815 74.6701 44.7211 74.6701C44.7211 66.8728 44.7211 59.0731 44.7211 51.2783L44.7261 51.2758Z" fill="black"/>
<path d="M86.1999 51.2758C89.3369 51.2758 92.4739 51.2708 95.6109 51.2758C97.4594 51.3431 99.3632 51.622 101.001 52.5334C102.565 53.3876 103.776 54.9217 104.088 56.6799C104.422 58.4978 104.266 60.5075 103.171 62.059C102.294 63.3714 100.858 64.1907 99.3808 64.6838C101.438 68.0059 103.482 71.338 105.532 74.6651C103.286 74.6651 101.038 74.6751 98.7931 74.6601C97.0952 71.5646 95.3899 68.4741 93.677 65.3861C93.0566 65.3861 92.4362 65.3861 91.8159 65.3861C91.8159 68.4791 91.8159 71.5696 91.8159 74.6626C89.9422 74.6676 88.0711 74.6676 86.1974 74.6626C86.2025 66.8629 86.1974 59.0656 86.1974 51.2708L86.1999 51.2758ZM91.7656 55.868C91.7606 57.6735 91.7656 59.4815 91.7656 61.2845C93.5539 61.2297 95.4552 61.4962 97.1455 60.7665C98.5243 60.1738 99.0066 58.2787 98.1601 57.0733C97.5976 56.2615 96.5552 56 95.6234 55.9178C94.34 55.8107 93.0516 55.8879 91.7681 55.868H91.7656Z" fill="black"/>
<path d="M106.953 51.2659C112.233 51.2858 117.512 51.2708 122.791 51.2733C122.796 52.8696 122.796 54.4659 122.791 56.0647C119.343 56.0647 115.897 56.0647 112.451 56.0647C112.446 57.5291 112.446 58.9934 112.451 60.4577C115.701 60.4577 118.949 60.4577 122.201 60.4577C122.201 61.9743 122.214 63.4909 122.196 65.0076C118.946 64.9951 115.701 65.0026 112.454 65.0026C112.454 66.5964 112.454 68.1902 112.454 69.7865C116.098 69.7865 119.742 69.7865 123.387 69.7865V74.6701H106.936C106.946 66.8703 106.913 59.0656 106.953 51.2659Z" fill="black"/>
</g>
<defs>
<clipPath id="clip0_814_216">
<rect width="143" height="107" fill="white"/>
</clipPath>
</defs>
</svg>
