<svg width="119" height="90" viewBox="0 0 119 90" fill="none" xmlns="http://www.w3.org/2000/svg">
<g clip-path="url(#clip0_540_237)">
<path d="M41.7777 3.88529C51.2229 -0.369087 62.1591 -1.15114 72.1277 1.6434C77.7293 3.19917 83.016 5.87275 87.5957 9.45352C92.799 13.4931 97.0721 18.7047 100.061 24.5732C98.4006 24.5774 96.7405 24.5732 95.0805 24.5732C92.2588 19.7287 88.4487 15.4576 83.9127 12.1584C78.5489 8.21475 72.1882 5.64544 65.5939 4.75494C60.9704 4.13555 56.2426 4.28779 51.6775 5.24919C43.0603 7.03645 35.1104 11.7809 29.3941 18.4649C27.7529 20.3543 26.316 22.4169 25.0438 24.5691C23.3921 24.5795 21.7383 24.5732 20.0866 24.5732C24.6518 15.4576 32.4681 8.03122 41.7798 3.88529H41.7777Z" fill="white"/>
<path d="M50.3114 10.0794C53.4709 9.15972 56.7597 8.78433 60.0402 8.70091C63.3728 8.78016 66.7095 9.17432 69.917 10.1065C77.9941 12.388 85.214 17.5955 89.8938 24.5672C88.0711 24.5818 86.2463 24.5672 84.4236 24.5735C80.3799 19.7227 74.8825 16.0856 68.7992 14.363C61.1017 12.1253 52.5575 12.9699 45.4606 16.705C41.786 18.6111 38.4951 21.2555 35.8319 24.4233C35.7923 24.4567 35.7131 24.5255 35.6734 24.561C33.8528 24.5881 32.0301 24.5652 30.2095 24.5714C34.9414 17.5892 42.1697 12.3255 50.3093 10.0752L50.3114 10.0794Z" fill="white"/>
<path d="M20.0867 65.0231C21.7426 65.0273 23.3984 65.0231 25.0543 65.0231C27.6173 69.4526 31.0208 73.3984 35.0479 76.5579C39.6964 80.2367 45.1687 82.8685 50.9476 84.1907C58.4824 85.9259 66.5178 85.4629 73.794 82.8331C82.6928 79.6486 90.3632 73.2107 95.0784 65.021C96.7364 65.0314 98.3985 65.0168 100.059 65.0293C97.3245 70.3995 93.5143 75.2253 88.895 79.1001C84.3111 82.9582 78.9493 85.8925 73.2184 87.6401C66.0611 89.8382 58.3511 90.1927 51.0185 88.6912C44.8163 87.4253 38.8914 84.8143 33.7758 81.0896C28.0282 76.9187 23.2608 71.3775 20.0846 65.0231H20.0867Z" fill="white"/>
<path d="M30.2137 65.0231C32.051 65.0606 33.9029 64.9647 35.7298 65.069C39.3397 69.3797 44.0925 72.7331 49.3917 74.6205C56.5637 77.2086 64.6762 77.0751 71.7523 74.2305C76.6677 72.2931 81.0431 69.0648 84.432 65.021C86.2568 65.0315 88.0857 65.0252 89.9126 65.0252C86.6509 69.8572 82.188 73.8572 77.0535 76.6142C71.6063 79.5339 65.3936 81.0146 59.2143 80.8582C53.9944 80.7414 48.7932 79.4755 44.1155 77.1481C38.5347 74.4036 33.6964 70.1742 30.2116 65.0252L30.2137 65.0231Z" fill="white"/>
<path d="M51.0893 28.2165C53.083 26.1853 56.8807 26.3375 58.5949 28.6524C58.0068 29.4553 57.4062 30.2499 56.8181 31.0548C56.3259 30.4417 55.6231 29.9183 54.7952 29.9725C53.7545 29.9662 52.9913 30.863 52.6576 31.7681C52.1195 33.2592 52.107 34.9109 52.4407 36.4479C52.6868 37.5073 53.3166 38.696 54.4866 38.9067C55.4021 39.0944 56.2592 38.548 56.7743 37.8285C57.3979 38.5918 58.0152 39.3592 58.6262 40.1329C57.8337 41.1861 56.645 41.989 55.3041 42.0724C53.5981 42.3289 51.8067 41.6303 50.7243 40.2852C49.2937 38.5104 48.8432 36.133 48.9413 33.9015C49.0289 31.8557 49.5982 29.693 51.0914 28.2165H51.0893Z" fill="white"/>
<path d="M83.9984 26.9674C85.4916 26.6191 87.1725 26.836 88.3967 27.8057C89.8732 28.9486 90.5635 30.8088 90.8138 32.6044C91.0515 34.6294 90.9597 36.7524 90.1735 38.6586C89.6542 39.9391 88.722 41.1007 87.4415 41.6783C85.7169 42.4416 83.5334 42.2143 82.109 40.9359C80.7221 39.7326 80.0986 37.8932 79.865 36.1205C79.6335 34.0413 79.7545 31.8495 80.6304 29.9225C81.2623 28.5211 82.4718 27.3302 83.9963 26.9653L83.9984 26.9674ZM84.9786 30.0664C84.1215 30.3 83.6814 31.178 83.4562 31.9684C83.0891 33.3406 83.0871 34.7942 83.2998 36.1914C83.4437 36.9985 83.696 37.8494 84.305 38.4333C84.843 38.9693 85.7982 39.0131 86.3425 38.4605C87.1684 37.6742 87.379 36.4772 87.4958 35.3906C87.5771 33.9141 87.5521 32.3375 86.8263 31.0049C86.4801 30.3604 85.7335 29.8349 84.9786 30.0685V30.0664Z" fill="white"/>
<path d="M94.7824 27.1072C96.6114 26.4753 98.8533 26.8403 100.215 28.273C99.6374 29.0863 99.0576 29.8997 98.4883 30.7172C97.8856 30.029 96.872 29.5597 95.9774 29.9309C95.0097 30.3063 94.9096 31.812 95.7355 32.3855C96.6781 33.1175 97.8835 33.4491 98.7448 34.2938C99.5435 35.0216 100.054 36.0748 100.042 37.1655C100.115 38.4647 99.75 39.837 98.8261 40.7838C97.7897 41.8849 96.1651 42.2728 94.7032 42.0622C93.4519 41.9183 92.2861 41.3135 91.3601 40.4751C91.919 39.6347 92.4925 38.8026 93.0702 37.9746C93.8022 38.6628 94.8199 39.2468 95.8543 38.9965C96.8908 38.7108 97.1223 37.2051 96.3444 36.5252C95.3267 35.6368 93.8961 35.3448 92.991 34.3084C92.0087 33.2468 91.8419 31.6827 92.09 30.3105C92.3236 28.859 93.3872 27.5806 94.7824 27.1072Z" fill="white"/>
<path d="M10.5041 27.1947C12.0181 27.1905 13.5322 27.1905 15.0462 27.1947C16.3267 27.2051 17.6844 27.6243 18.5186 28.6462C19.4716 29.7786 19.6093 31.3636 19.4174 32.7775C19.2193 34.2582 18.2287 35.6513 16.7939 36.1518C15.8366 36.5376 14.7939 36.4313 13.7887 36.4313C13.7616 38.1914 13.7887 39.9537 13.7762 41.7138C12.6876 41.7138 11.5948 41.7138 10.5062 41.7138C10.5062 36.8734 10.5062 32.0351 10.5062 27.1947H10.5041ZM13.7783 30.0163C13.7783 31.2551 13.7783 32.4939 13.7783 33.7327C14.3893 33.7056 15.0796 33.8682 15.6177 33.4928C16.5061 32.8672 16.602 31.4804 16.0598 30.6024C15.5405 29.862 14.5624 30.0143 13.7804 30.0143L13.7783 30.0163Z" fill="white"/>
<path d="M20.6477 27.1946C22.216 27.1884 23.7864 27.1905 25.3546 27.1905C26.6038 27.1946 27.9511 27.5221 28.804 28.496C29.7383 29.5617 29.878 31.0945 29.705 32.4459C29.5631 33.6325 28.8728 34.7774 27.755 35.2717C28.5621 37.4197 29.3963 39.5574 30.2034 41.7054C29.0376 41.7158 27.8718 41.7096 26.7081 41.7096C26.0616 39.7847 25.413 37.8598 24.7582 35.937C24.4516 35.9411 24.1472 35.9432 23.8406 35.9474C23.8364 37.8681 23.8406 39.7909 23.8406 41.7117C22.777 41.7117 21.7134 41.7117 20.6498 41.7117C20.6456 36.8713 20.6498 32.035 20.6498 27.1946H20.6477ZM23.8406 29.9746C23.8406 31.1862 23.8364 32.4 23.8406 33.6117C24.6873 33.6471 25.7488 33.6638 26.2577 32.8484C26.6393 32.1038 26.6372 31.0611 26.0595 30.4125C25.4735 29.8328 24.5851 29.9913 23.8406 29.9746Z" fill="white"/>
<path d="M31.8549 27.1947C32.9602 27.1905 34.0634 27.1947 35.1687 27.1947C35.1687 32.035 35.1687 36.8754 35.1687 41.7158C34.0655 41.7158 32.9623 41.7158 31.8591 41.7158C31.8549 36.8754 31.8591 32.0371 31.8591 27.1967L31.8549 27.1947Z" fill="white"/>
<path d="M37.5821 27.1947C38.8021 27.1905 40.0221 27.1905 41.24 27.1947C42.3495 30.1644 43.4402 33.1425 44.5747 36.1039C44.6081 33.1321 44.5247 30.1644 44.533 27.1947C45.4881 27.1905 46.4433 27.1905 47.3984 27.1947C47.3943 32.0351 47.3984 36.8734 47.3984 41.7138C46.2181 41.718 45.0398 41.7096 43.8594 41.718C42.7249 38.7795 41.6321 35.8244 40.4851 32.8922C40.4997 35.8348 40.5414 38.7754 40.5643 41.718C39.5696 41.718 38.5748 41.718 37.5821 41.718C37.5779 36.8776 37.5821 32.0393 37.5821 27.1989V27.1947Z" fill="white"/>
<path d="M59.9942 27.1947C61.0995 27.1905 62.2028 27.1947 63.3081 27.1947C63.3081 32.035 63.3081 36.8754 63.3081 41.7158C62.2048 41.7158 61.1016 41.7158 59.9984 41.7158C59.9942 36.8754 59.9984 32.0371 59.9984 27.1967L59.9942 27.1947Z" fill="white"/>
<path d="M65.0184 27.205C66.5199 27.1758 68.0235 27.2009 69.5272 27.1904C70.841 27.2009 72.2633 27.618 73.0975 28.6982C74.0318 29.8744 74.1632 31.4844 73.9275 32.9213C73.7085 34.2769 72.816 35.5282 71.5334 36.0662C70.5261 36.5563 69.3833 36.4228 68.3009 36.4395C68.2967 38.1976 68.3051 39.9577 68.2967 41.7158C67.206 41.7116 66.1153 41.7158 65.0267 41.7116C65.0225 36.8775 65.0371 32.0433 65.0184 27.2071V27.205ZM68.3009 30.0142C68.2946 31.255 68.2967 32.4938 68.3009 33.7347C68.937 33.7034 69.6711 33.8765 70.2154 33.451C71.0371 32.8171 71.0934 31.5407 70.645 30.6711C70.1403 29.8765 69.108 30.0017 68.303 30.0142H68.3009Z" fill="white"/>
<path d="M75.2914 27.1947C76.4113 27.1905 77.5291 27.1905 78.649 27.1947C78.6448 32.0351 78.649 36.8734 78.649 41.7138C77.5291 41.7138 76.4133 41.7138 75.2955 41.7138C75.2955 36.8734 75.2955 32.0351 75.2955 27.1968L75.2914 27.1947Z" fill="white"/>
<path d="M103.174 27.1947C103.856 27.1905 104.538 27.1947 105.22 27.1864C106.084 29.4304 106.878 31.6994 107.746 33.9392C108.595 31.691 109.458 29.4491 110.301 27.201C110.976 27.1885 111.654 27.1926 112.332 27.1926C111.124 30.1019 109.879 32.9965 108.695 35.9141C108.63 37.8432 108.691 39.7806 108.668 41.7117H106.789C106.784 39.9245 106.784 38.1372 106.793 36.3479C106.789 36.1247 106.793 35.8995 106.697 35.6972C105.518 32.863 104.344 30.031 103.177 27.1926L103.174 27.1947Z" fill="white"/>
<path d="M57.9757 42.5084C60.8662 42.1664 63.9569 42.7086 66.3447 44.4396C68.4052 45.9015 69.7566 48.2518 70.1278 50.7356C70.4761 53.1214 70.207 55.6553 69.0475 57.7992C68.0444 59.7261 66.3427 61.2569 64.3531 62.1098C61.9673 63.1338 59.2541 63.3069 56.7328 62.7355C54.0738 62.1286 51.6275 60.4519 50.2991 58.0432C49.029 55.8555 48.7162 53.2194 49.0811 50.744C49.4565 48.2059 50.858 45.8097 52.9852 44.3499C54.4533 43.3176 56.1989 42.717 57.9757 42.5063V42.5084ZM58.6556 46.7816C57.3688 46.9859 56.1655 47.6783 55.3376 48.6835C53.5399 50.9901 53.6025 54.55 55.4398 56.8169C56.958 58.6897 59.7755 59.2048 61.9298 58.21C63.3458 57.5614 64.4261 56.2622 64.864 54.7731C65.5648 52.5125 65.1164 49.7805 63.3312 48.135C62.1008 46.9776 60.3073 46.5063 58.6556 46.7836V46.7816Z" fill="white"/>
<path d="M107.381 43.7743C108.995 42.7274 110.976 42.3916 112.874 42.4542C115.053 42.5877 117.247 43.3697 118.859 44.8713C117.835 45.9286 116.828 47.0005 115.818 48.0704C114.968 47.0714 113.706 46.4312 112.392 46.3728C111.533 46.3603 110.567 46.525 109.996 47.232C109.316 47.9724 109.554 49.305 110.478 49.7346C112.325 50.7023 114.492 50.9546 116.259 52.1037C117.445 52.8607 118.417 54.0724 118.621 55.4926C118.845 57.1172 118.586 58.8794 117.591 60.2183C116.615 61.6197 115.007 62.4498 113.366 62.7939C110.918 63.309 108.3 62.9419 106.063 61.8304C105.243 61.3966 104.455 60.869 103.848 60.1578C104.914 59.1318 105.906 58.0369 106.97 57.0087C107.992 58.1975 109.495 59.0087 111.074 59.0901C111.75 59.0942 112.465 59.0004 113.047 58.6292C113.9 58.0911 114.156 56.7835 113.541 55.9785C112.928 55.2382 111.981 54.9253 111.101 54.6313C109.303 54.0286 107.314 53.5343 106.01 52.0557C104.982 50.9087 104.682 49.2946 104.861 47.8014C105.001 46.1559 106.002 44.6523 107.381 43.7701V43.7743Z" fill="white"/>
<path d="M0.118307 42.9402C1.90348 42.9361 3.68656 42.9361 5.46965 42.9402C7.0129 47.5742 8.47482 52.2352 10.0494 56.8587C11.5634 52.2185 13.0587 47.57 14.5769 42.9319C16.3329 42.9402 18.0868 42.9277 19.8407 42.9361C17.3277 49.4678 14.8105 56.0016 12.2829 62.5291C10.7 62.5208 9.11298 62.5291 7.52802 62.525C5.05881 55.9932 2.58334 49.4657 0.114136 42.9361L0.118307 42.9402Z" fill="white"/>
<path d="M23.482 42.9421C25.0231 42.9317 26.5643 42.9463 28.1076 42.9338C30.825 49.4634 33.534 55.9951 36.2451 62.529C34.4787 62.529 32.7123 62.5331 30.9459 62.529C30.435 61.2506 29.924 59.9742 29.4298 58.6917C26.9209 58.6854 24.4121 58.6917 21.9033 58.6917C21.4174 59.9701 20.9502 61.2547 20.4643 62.5352C18.7354 62.5352 17.0066 62.5352 15.2777 62.5352C18.0013 56.0014 20.7583 49.4822 23.482 42.9484V42.9421ZM25.7197 48.2789C24.8813 50.4728 24.0847 52.6813 23.263 54.8815C24.8793 54.8773 26.4955 54.8857 28.1097 54.8773C27.3151 52.6751 26.5247 50.4728 25.7176 48.2768L25.7197 48.2789Z" fill="white"/>
<path d="M37.2568 42.94C38.8501 42.94 40.4434 42.94 42.0388 42.94C42.0429 48.0807 42.0388 53.2193 42.0388 58.36C44.5622 58.3705 47.0856 58.3475 49.6091 58.3705C49.6007 59.7573 49.6091 61.1442 49.6049 62.531C45.4861 62.531 41.3714 62.531 37.2526 62.531C37.2526 56.0014 37.2526 49.4696 37.2526 42.9421L37.2568 42.94Z" fill="white"/>
<path d="M71.6941 42.9402C74.2989 42.9402 76.9036 42.936 79.5084 42.9402C81.0433 42.9965 82.6241 43.2301 83.9838 43.9934C85.2831 44.7087 86.2883 45.9934 86.5469 47.4657C86.8243 48.9881 86.695 50.6711 85.7857 51.9703C85.0579 53.0694 83.865 53.7555 82.6387 54.1684C84.3467 56.9505 86.0443 59.7408 87.746 62.527C85.8816 62.527 84.0151 62.5354 82.1507 62.5229C80.7409 59.9306 79.3249 57.3425 77.9026 54.7565C77.3875 54.7565 76.8724 54.7565 76.3572 54.7565C76.3572 57.3467 76.3572 59.9348 76.3572 62.525C74.8015 62.5291 73.2478 62.5291 71.692 62.525C71.6962 55.9932 71.692 49.4636 71.692 42.9361L71.6941 42.9402ZM76.3155 46.7858C76.3114 48.2978 76.3155 49.8119 76.3155 51.3218C77.8004 51.2759 79.3791 51.499 80.7826 50.888C81.9276 50.3916 82.328 48.8046 81.6252 47.7952C81.158 47.1153 80.2925 46.8964 79.5188 46.8276C78.4532 46.7379 77.3833 46.8025 76.3176 46.7858H76.3155Z" fill="white"/>
<path d="M88.9262 42.9319C93.3099 42.9486 97.6935 42.9361 102.077 42.9381C102.081 44.2749 102.081 45.6117 102.077 46.9506C99.2138 46.9506 96.3526 46.9506 93.4913 46.9506C93.4871 48.1769 93.4871 49.4031 93.4913 50.6294C96.1899 50.6294 98.8864 50.6294 101.587 50.6294C101.587 51.8994 101.598 53.1695 101.583 54.4396C98.8843 54.4291 96.1899 54.4354 93.4934 54.4354C93.4934 55.7701 93.4934 57.1048 93.4934 58.4416C96.5194 58.4416 99.5454 58.4416 102.571 58.4416V62.5312H88.9116C88.9199 55.9995 88.8928 49.4636 88.9262 42.9319Z" fill="white"/>
</g>
<defs>
<clipPath id="clip0_540_237">
<rect width="118.739" height="89.6047" fill="white" transform="translate(0.118408)"/>
</clipPath>
</defs>
</svg>
