<svg width="24" height="24" viewBox="0 0 24 24" fill="none" xmlns="http://www.w3.org/2000/svg">
<path fill-rule="evenodd" clip-rule="evenodd" d="M21.24 11.62C21.24 16.6565 17.1565 20.74 12.12 20.74C7.08348 20.74 3 16.6565 3 11.62C3 6.58348 7.08348 2.5 12.12 2.5C17.1565 2.5 21.24 6.58348 21.24 11.62ZM12.4468 9.23283C11.5599 9.60143 9.7868 10.3652 7.12832 11.5235C6.69664 11.6952 6.47016 11.8632 6.44964 12.0274C6.41468 12.3055 6.76276 12.415 7.23548 12.5632C7.30008 12.5837 7.36696 12.6042 7.43536 12.627C7.90124 12.7782 8.52748 12.9553 8.85276 12.9622C9.1484 12.9682 9.47824 12.8466 9.84228 12.5974C12.326 10.92 13.6081 10.0726 13.6886 10.0544C13.7456 10.0415 13.8247 10.0248 13.8779 10.0726C13.9311 10.1198 13.9258 10.2094 13.9204 10.2338C13.8855 10.3804 12.522 11.6489 11.8152 12.3055C11.5948 12.51 11.439 12.6551 11.4071 12.6886C11.3357 12.7623 11.2627 12.833 11.1928 12.9006C10.7596 13.3171 10.4358 13.6302 11.211 14.1409C11.5834 14.3864 11.8814 14.5893 12.1785 14.7915C12.503 15.0126 12.8268 15.233 13.2463 15.5082C13.3527 15.5781 13.4546 15.6503 13.5541 15.721C13.9318 15.9908 14.2716 16.2324 14.6911 16.1944C14.9343 16.1716 15.1866 15.9429 15.3143 15.2596C15.616 13.6439 16.2103 10.1448 16.3479 8.70235C16.3562 8.58259 16.3511 8.46226 16.3327 8.34364C16.3216 8.24782 16.275 8.15966 16.202 8.09664C16.0933 8.00772 15.9246 7.98872 15.8486 7.99024C15.5058 7.99632 14.9799 8.17947 12.4468 9.23283Z" fill="black"/>
</svg>
