<svg width="24" height="24" viewBox="0 0 24 24" fill="none" xmlns="http://www.w3.org/2000/svg">
<path d="M19.9042 21.1109C19.8376 21.2286 19.7398 21.3267 19.6209 21.3951C19.5019 21.4636 19.3663 21.4998 19.228 21.5H14.5916C14.4615 21.5 14.3336 21.4681 14.2196 21.4073C14.1056 21.3465 14.0093 21.2587 13.9395 21.1522L10.0285 15.1869L4.34495 21.2544C4.2064 21.3988 4.01477 21.4845 3.81161 21.4927C3.60845 21.5009 3.41013 21.4311 3.25964 21.2984C3.10916 21.1657 3.01865 20.9807 3.00772 20.7836C2.9968 20.5866 3.06635 20.3933 3.20129 20.2456L9.16785 13.8706L3.12112 4.65313C3.04665 4.53973 3.00496 4.40898 3.00042 4.27458C2.99587 4.14018 3.02865 4.00707 3.0953 3.88918C3.16196 3.77129 3.26005 3.67296 3.3793 3.60449C3.49855 3.53603 3.63457 3.49993 3.77312 3.5H8.40959C8.53965 3.50004 8.66759 3.53194 8.78156 3.59274C8.89553 3.65353 8.99185 3.74127 9.06159 3.84781L12.9727 9.81312L18.6562 3.74562C18.7947 3.60117 18.9864 3.51555 19.1895 3.50731C19.3927 3.49907 19.591 3.56888 19.7415 3.70161C19.892 3.83435 19.9825 4.01929 19.9934 4.21636C20.0043 4.41343 19.9348 4.60674 19.7999 4.75438L13.8333 11.1247L19.88 20.3478C19.9541 20.4613 19.9954 20.5919 19.9996 20.7262C20.0039 20.8604 19.9709 20.9933 19.9042 21.1109Z" fill="black"/>
</svg>
