<svg width="24" height="24" viewBox="0 0 24 24" fill="none" xmlns="http://www.w3.org/2000/svg">
<path d="M21.543 5.998C22 7.78 22 11.5 22 11.5C22 11.5 22 15.22 21.543 17.002C21.289 17.987 20.546 18.762 19.605 19.024C17.896 19.5 12 19.5 12 19.5C12 19.5 6.107 19.5 4.395 19.024C3.45 18.758 2.708 17.984 2.457 17.002C2 15.22 2 11.5 2 11.5C2 11.5 2 7.78 2.457 5.998C2.711 5.013 3.454 4.238 4.395 3.976C6.107 3.5 12 3.5 12 3.5C12 3.5 17.896 3.5 19.605 3.976C20.55 4.242 21.292 5.016 21.543 5.998ZM10 15L16 11.5L10 8V15Z" fill="black"/>
</svg>
