<svg width="14" height="14" viewBox="0 0 14 14" fill="none" xmlns="http://www.w3.org/2000/svg">
<path d="M11.9038 9.53555C11.2789 8.85849 10.5206 8.31817 9.67659 7.94862C8.83261 7.57906 7.92124 7.38828 6.99989 7.38828C6.07854 7.38828 5.16718 7.57906 4.32319 7.94862C3.47921 8.31817 2.72089 8.85849 2.096 9.53555C1.99953 9.64223 1.94556 9.7806 1.94434 9.92443V12.2578C1.94638 12.4111 2.00874 12.5575 2.11792 12.6652C2.22709 12.7729 2.3743 12.8333 2.52767 12.8333H11.4721C11.6268 12.8333 11.7752 12.7719 11.8846 12.6625C11.994 12.5531 12.0554 12.4047 12.0554 12.25V9.91666C12.0523 9.77552 11.9985 9.64022 11.9038 9.53555Z" fill="black"/>
<path d="M6.99989 6.6111C8.50333 6.6111 9.72211 5.39232 9.72211 3.88888C9.72211 2.38544 8.50333 1.16666 6.99989 1.16666C5.49645 1.16666 4.27767 2.38544 4.27767 3.88888C4.27767 5.39232 5.49645 6.6111 6.99989 6.6111Z" fill="black"/>
</svg>
