<svg width="18" height="18" viewBox="0 0 18 18" fill="none" xmlns="http://www.w3.org/2000/svg">
<path d="M8.57675 9.13568V5.14289H7.45432C6.21104 5.14289 5.55564 4.33675 5.55564 3.55343C5.55564 2.73989 6.15832 2.25775 6.96446 2.25775C7.89114 2.25775 8.61436 2.97325 8.61436 4.17121V5.14289H9.87243V4.17121C9.87243 2.97325 10.5956 2.25775 11.5223 2.25775C12.3285 2.25775 12.9385 2.73989 12.9385 3.55311C12.9385 4.33675 12.2603 5.14289 11.0325 5.14289H9.91004V9.136H15.2213C16.0422 9.136 16.4868 8.81971 16.4868 8.01357V6.26564C16.4868 5.46721 16.0422 5.14321 15.2213 5.14321H13.466C13.933 4.7215 14.2117 4.14871 14.2117 3.50071C14.2117 2.04689 13.0591 1 11.5975 1C10.5127 1 9.63136 1.60236 9.24725 2.67239C8.86282 1.60268 7.97407 1 6.88925 1C5.43511 1 4.27507 2.04689 4.27507 3.50071C4.27507 4.14871 4.54636 4.7215 5.02079 5.14321H3.26579C2.48954 5.14321 2 5.46721 2 6.26564V8.01357C2 8.81971 2.45193 9.136 3.26546 9.136L8.57675 9.13568ZM8.57675 16.9252V9.94182H3.07711V15.0117C3.07711 16.2698 3.81543 16.9252 5.0735 16.9252H8.57675ZM9.91004 9.94182V16.9252H13.4133C14.6714 16.9252 15.4094 16.2698 15.4094 15.0117V9.94182H9.91004Z" fill="black"/>
</svg>
