<svg width="18" height="18" viewBox="0 0 18 18" fill="none" xmlns="http://www.w3.org/2000/svg">
<path d="M9.30332 2.11203C9.21879 2.03973 9.11122 2 8.99998 2C8.88875 2 8.78118 2.03973 8.69665 2.11203L2 7.85202V14.6C2 14.9713 2.1475 15.3274 2.41005 15.59C2.6726 15.8525 3.02869 16 3.4 16H7.13332C7.25709 16 7.37579 15.9508 7.4633 15.8633C7.55082 15.7758 7.59999 15.6571 7.59999 15.5333V12.7333C7.59999 12.362 7.74749 12.0059 8.01004 11.7434C8.27259 11.4808 8.62868 11.3333 8.99998 11.3333C9.37129 11.3333 9.72738 11.4808 9.98993 11.7434C10.2525 12.0059 10.4 12.362 10.4 12.7333V15.5333C10.4 15.6571 10.4491 15.7758 10.5367 15.8633C10.6242 15.9508 10.7429 16 10.8666 16H14.6C14.9713 16 15.3274 15.8525 15.5899 15.59C15.8525 15.3274 16 14.9713 16 14.6V7.85202L9.30332 2.11203Z" fill="black"/>
</svg>
