<svg width="18" height="18" viewBox="0 0 18 18" fill="none" xmlns="http://www.w3.org/2000/svg">
<path d="M9.5 6H3.5C3.10218 6 2.72064 6.15804 2.43934 6.43934C2.15804 6.72064 2 7.10218 2 7.5V10.5C2 10.8978 2.15804 11.2794 2.43934 11.5607C2.72064 11.842 3.10218 12 3.5 12H4.25V15C4.25 15.1989 4.32902 15.3897 4.46967 15.5303C4.61032 15.671 4.80109 15.75 5 15.75H6.5C6.69891 15.75 6.88968 15.671 7.03033 15.5303C7.17098 15.3897 7.25 15.1989 7.25 15V12H9.5L13.25 15V3L9.5 6ZM16.625 9C16.625 10.2825 15.905 11.445 14.75 12V6C15.8975 6.5625 16.625 7.725 16.625 9Z" fill="black"/>
</svg>
