<svg width="35" height="31" viewBox="0 0 35 31" fill="none" xmlns="http://www.w3.org/2000/svg">
<path d="M3.88889 3.875C1.74392 3.875 0 5.6127 0 7.75V23.25C0 25.3873 1.74392 27.125 3.88889 27.125H31.1111C33.2561 27.125 35 25.3873 35 23.25V7.75C35 5.6127 33.2561 3.875 31.1111 3.875H3.88889ZM7.77778 23.25H3.88889V19.375C6.03385 19.375 7.77778 21.1127 7.77778 23.25ZM3.88889 11.625V7.75H7.77778C7.77778 9.8873 6.03385 11.625 3.88889 11.625ZM27.2222 23.25C27.2222 21.1127 28.9661 19.375 31.1111 19.375V23.25H27.2222ZM31.1111 11.625C28.9661 11.625 27.2222 9.8873 27.2222 7.75H31.1111V11.625ZM17.5 9.6875C19.0471 9.6875 20.5308 10.2999 21.6248 11.3899C22.7188 12.48 23.3333 13.9584 23.3333 15.5C23.3333 17.0416 22.7188 18.52 21.6248 19.6101C20.5308 20.7001 19.0471 21.3125 17.5 21.3125C15.9529 21.3125 14.4692 20.7001 13.3752 19.6101C12.2812 18.52 11.6667 17.0416 11.6667 15.5C11.6667 13.9584 12.2812 12.48 13.3752 11.3899C14.4692 10.2999 15.9529 9.6875 17.5 9.6875Z" fill="black"/>
</svg>
