<svg width="36" height="37" viewBox="0 0 36 37" fill="none" xmlns="http://www.w3.org/2000/svg">
<path d="M2.53571 9.30806C2.53571 8.55148 2.83625 7.82589 3.37124 7.29091C3.90622 6.75593 4.63181 6.45538 5.38838 6.45538H30.1116C30.8682 6.45538 31.5938 6.75593 32.1287 7.29091C32.6637 7.82589 32.9643 8.55148 32.9643 9.30806V27.692C32.9643 28.4486 32.6637 29.1742 32.1287 29.7091C31.5938 30.2441 30.8682 30.5447 30.1116 30.5447H5.38838C4.63181 30.5447 3.90622 30.2441 3.37124 29.7091C2.83625 29.1742 2.53571 28.4486 2.53571 27.692V9.30806ZM6.97321 15.0134C6.97321 15.5383 7.39921 15.9643 7.9241 15.9643C9.13152 15.9635 10.3273 16.2005 11.4431 16.6619C12.5589 17.1234 13.5728 17.8001 14.427 18.6534C15.2812 19.5068 15.9589 20.5201 16.4214 21.6354C16.8839 22.7508 17.1221 23.9463 17.1224 25.1537C17.1224 25.4059 17.2226 25.6478 17.4009 25.8261C17.5792 26.0045 17.8211 26.1046 18.0733 26.1046C18.3255 26.1046 18.5674 26.0045 18.7457 25.8261C18.924 25.6478 19.0242 25.4059 19.0242 25.1537C19.0242 19.0211 14.0542 14.0625 7.9241 14.0625C7.67191 14.0625 7.43004 14.1627 7.25172 14.341C7.07339 14.5194 6.97321 14.7612 6.97321 15.0134ZM7.9241 18.4988C7.67191 18.4988 7.43004 18.5989 7.25172 18.7773C7.07339 18.9556 6.97321 19.1975 6.97321 19.4497C6.97321 19.7018 7.07339 19.9437 7.25172 20.122C7.43004 20.3004 7.67191 20.4005 7.9241 20.4005C9.18462 20.4009 10.3934 20.9018 11.2847 21.7931C12.1761 22.6844 12.677 23.8932 12.6773 25.1537C12.6773 25.4059 12.7775 25.6478 12.9558 25.8261C13.1341 26.0045 13.376 26.1046 13.6282 26.1046C13.8804 26.1046 14.1222 26.0045 14.3006 25.8261C14.4789 25.6478 14.5791 25.4059 14.5791 25.1537C14.5791 23.3886 13.878 21.6958 12.63 20.4475C11.3819 19.1993 9.68923 18.4991 7.9241 18.4988ZM8.55803 26.1046C8.97835 26.1046 9.38145 25.9377 9.67867 25.6405C9.97588 25.3432 10.1428 24.9401 10.1428 24.5198C10.1428 24.0995 9.97588 23.6964 9.67867 23.3992C9.38145 23.102 8.97835 22.935 8.55803 22.935C8.13771 22.935 7.7346 23.102 7.43739 23.3992C7.14018 23.6964 6.97321 24.0995 6.97321 24.5198C6.97321 24.9401 7.14018 25.3432 7.43739 25.6405C7.7346 25.9377 8.13771 26.1046 8.55803 26.1046Z" fill="black"/>
</svg>
