<svg width="18" height="18" viewBox="0 0 18 18" fill="none" xmlns="http://www.w3.org/2000/svg">
	<path
		d="M14.25 14.5H3.75V6.25H14.25M12 1V2.5H6V1H4.5V2.5H3.75C2.9175 2.5 2.25 3.1675 2.25 4V14.5C2.25 14.8978 2.40804 15.2794 2.68934 15.5607C2.97064 15.842 3.35218 16 3.75 16H14.25C14.6478 16 15.0294 15.842 15.3107 15.5607C15.592 15.2794 15.75 14.8978 15.75 14.5V4C15.75 3.60218 15.592 3.22064 15.3107 2.93934C15.0294 2.65804 14.6478 2.5 14.25 2.5H13.5V1M12.75 9.25H9V13H12.75V9.25Z"
		fill="white" />
</svg>